<svg width="16" height="16" viewBox="0 0 16 16" fill="none" xmlns="http://www.w3.org/2000/svg">
    <g clip-path="url(#oj2jldap1a)">
        <path d="M6.462 1.107c1.427 0 2.777.553 3.784 1.57a5.333 5.333 0 0 1 1.571 3.785 5.288 5.288 0 0 1-1.57 3.784 5.333 5.333 0 0 1-3.785 1.572 5.288 5.288 0 0 1-3.784-1.572 5.363 5.363 0 0 1 3.784-9.15m0-1.107c-1.66 0-3.308.63-4.57 1.892-2.523 2.534-2.523 6.628 0 9.15a6.452 6.452 0 0 0 4.57 1.893c1.649 0 3.308-.63 4.57-1.892a6.465 6.465 0 0 0 0-9.14A6.452 6.452 0 0 0 6.462 0V-.01z" fill="#fff"/>
        <path d="m10.744 10.744 4.869 4.869" stroke="#fff" stroke-miterlimit="10"/>
    </g>
    <defs>
        <clipPath id="oj2jldap1a">
            <path fill="#fff" d="M0 0h16v16H0z"/>
        </clipPath>
    </defs>
</svg>
