<svg width="60" height="42" viewBox="0 0 60 42" fill="none" xmlns="http://www.w3.org/2000/svg">
    <path d="M48.06 23.573v-7.525H45.3a16.573 16.573 0 0 0-1.543-3.854l2.125-2.157-6.26-6.352-2.117 2.149a16.144 16.144 0 0 0-3.61-1.52V1h-9.736v3.315c-1.272.36-2.483.874-3.61 1.519l-2.118-2.15-6.256 6.353 2.125 2.157a16.723 16.723 0 0 0-1.543 3.854H10v8.983h2.887c.398 1.37.965 2.666 1.677 3.864l-1.915 1.946 6.26 6.352 2.113-2.145a16.221 16.221 0 0 0 3.81 1.439v2.917h8.408v-2.917a15.67 15.67 0 0 0 2.136-.674" stroke="#1F2085" stroke-linecap="round" stroke-linejoin="round"/>
    <path d="M39.258 23.85a11.11 11.11 0 0 0 .607-3.97c-.163-5.712-4.706-10.407-10.329-10.67-6.382-.295-11.618 5.013-11.34 11.486.242 5.653 4.778 10.25 10.346 10.502a10.592 10.592 0 0 0 3.846-.532M48.19 23.573c2.238.529 3.81 2.58 3.81 5.031 0 1.548-.372 3.767-2.05 5.854-2.901 3.613-6.79 6.25-7.856 6.542-.928-.255-3.986-2.28-6.678-5.184" stroke="#1F2085" stroke-linecap="round" stroke-linejoin="round"/>
    <path d="M39.33 23.85c1.372.554 2.413 1.65 2.785 3.17.604-2.212 2.584-3.581 4.933-3.581.398 0 .78.047 1.146.134M32.413 30.666a9.168 9.168 0 0 0 1.825 3.792c.38.47.773.925 1.175 1.358M39.33 23.85a5.82 5.82 0 0 0-2.19-.411c-2.83 0-4.95 2.313-4.95 5.165 0 .601.057 1.304.224 2.062" stroke="#1F2085" stroke-linecap="round" stroke-linejoin="round"/>
</svg>
