<svg width="60" height="42" viewBox="0 0 60 42" fill="none" xmlns="http://www.w3.org/2000/svg">
    <path d="M29.996 36.144a7.192 7.192 0 0 0 7.192-7.193 7.192 7.192 0 1 0-7.192 7.193z" stroke="#1F2085" stroke-linecap="round" stroke-linejoin="round"/>
    <path d="M29.997 32.9a3.949 3.949 0 1 0 0-7.898 3.949 3.949 0 0 0 0 7.898zM52.638 11.855a8.08 8.08 0 0 0-.254-1.117c-1.174-3.936-2.717-5.32-5.871-7.06-3.834-2.1-15.685-2.348-16.49-2.36h-.052c-.806.012-12.656.26-16.49 2.367-3.155 1.733-4.697 3.124-5.872 7.06-.12.4-.203.774-.254 1.117-.285 1.91.99 3.694 2.844 4.012 1.365.228 3.586.482 5.732.197 2.26-.305 2.602-1.924 2.57-2.997-.012-.501-.19-.977-.444-1.415-.577-1.003-.171-1.607-.171-1.607.863-2.824 11.635-2.888 12.11-2.894.477 0 11.249.063 12.112 2.894 0 0 .406.604-.172 1.607-.247.431-.425.907-.444 1.415-.032 1.073.311 2.692 2.57 2.997 2.146.292 4.368.038 5.733-.197 1.86-.318 3.129-2.101 2.843-4.012v-.007z" stroke="#1F2085" stroke-linecap="round" stroke-linejoin="round"/>
    <path d="M48.658 37.337 45.802 20.21c-.197-1.518-1.65-2.66-3.377-2.66H37.22v-1.6h-4.183v1.6h-6.074v-1.6H22.78v1.6h-5.205c-1.727 0-3.18 1.142-3.377 2.66L11.34 37.337c-.234 1.784 1.346 3.352 3.377 3.352h30.563c2.032 0 3.612-1.568 3.377-3.352z" stroke="#1F2085" stroke-linecap="round" stroke-linejoin="round"/>
</svg>
