<svg width="12" height="12" viewBox="0 0 12 12" fill="none" xmlns="http://www.w3.org/2000/svg">
<g clip-path="url(#clip0_524_2766)">
<path d="M3.40946 4.73262L4.81932 3.68718C4.99247 3.55744 5.05145 3.32617 4.95632 3.1325L3.52552 0.182325C3.45893 0.0431836 3.30291 -0.0282673 3.1507 0.00933843L0.287218 0.718207C0.110271 0.761454 -0.00959531 0.921278 -8.20751e-05 1.09991C0.091245 2.69627 1.03115 10.0181 10.5139 11.9943C10.689 12.03 10.864 11.9341 10.9268 11.7687L11.9733 9.01216C12.0456 8.82037 11.9619 8.60414 11.7792 8.51012L8.83011 6.99461C8.66077 6.90812 8.45338 6.94948 8.33351 7.09615L7.25852 8.39542C7.25852 8.39542 5.26454 7.6922 3.41137 4.7345L3.40946 4.73262Z" fill="#D0D0D0"/>
</g>
<defs>
<clipPath id="clip0_524_2766">
<rect width="12" height="12" fill="white"/>
</clipPath>
</defs>
</svg>
