<svg width="60" height="42" viewBox="0 0 60 42" fill="none" xmlns="http://www.w3.org/2000/svg">
    <path d="M19.495 7.257h15.728M19.495 11.948h15.728M19.495 16.644h8.988M24.437 26.027 14.102 36.976M35.224 26.027l10.338 10.949M10 19.77v18.445A2.792 2.792 0 0 0 12.8 41h34.29A2.9 2.9 0 0 0 50 38.107V19.77" stroke="#1F2085" stroke-linecap="round" stroke-linejoin="round"/>
    <path d="M10 19.77c.914.375 1.947.98 3.707 1.695M46.292 21.473c1.764-.723 2.797-1.332 3.707-1.703" stroke="#1F2085" stroke-linecap="round" stroke-linejoin="round"/>
    <path d="M46.293 21.473c-6.262 2.563-16.06 6.564-16.235 6.564-.175 0-10.048-4.005-16.347-6.572M46.292 21.473v-3.564M13.708 17.586V2.766A1.77 1.77 0 0 1 15.483 1h29.035c.981 0 1.776.79 1.776 1.765V17.91M13.708 17.586v3.883M50 19.77l-3.708-1.861M13.707 17.586 10 19.77" stroke="#1F2085" stroke-linecap="round" stroke-linejoin="round"/>
</svg>
