<svg width="20" height="20" viewBox="0 0 20 20" fill="none" xmlns="http://www.w3.org/2000/svg">
    <g clip-path="url(#tueh5kz3ma)">
        <path d="M8.425 2.95c1.46 0 2.84.565 3.87 1.607a5.455 5.455 0 0 1 1.607 3.87c0 1.46-.565 2.84-1.606 3.87a5.455 5.455 0 0 1-3.87 1.607c-1.46 0-2.841-.566-3.871-1.607a5.485 5.485 0 0 1 3.87-9.359m0-1.131a6.58 6.58 0 0 0-4.673 1.935c-2.58 2.591-2.58 6.778 0 9.359a6.598 6.598 0 0 0 4.673 1.935A6.598 6.598 0 0 0 13.1 13.1a6.611 6.611 0 0 0 0-9.348 6.598 6.598 0 0 0-4.674-1.935v-.011z" fill="#fff"/>
        <path d="m12.805 12.807 4.979 4.979" stroke="#fff" stroke-miterlimit="10"/>
    </g>
    <defs>
        <clipPath id="tueh5kz3ma">
            <path fill="#fff" d="M1.816 1.818H18.18v16.364H1.816z"/>
        </clipPath>
    </defs>
</svg>
