<svg width="60" height="42" viewBox="0 0 60 42" fill="none" xmlns="http://www.w3.org/2000/svg">
<path d="M44.4727 20.5V3.44777C44.4727 2.19287 43.4603 1.17873 42.2209 1.18238L16.4171 1.25534C15.1777 1.25899 14.1761 2.27677 14.1797 3.53168L14.2806 38.5485C14.2806 39.8034 15.293 40.8176 16.5324 40.8139L42.3362 40.741" stroke="#1F2085" stroke-linecap="round" stroke-linejoin="round"/>
<path d="M19.502 7.26367H34.6953" stroke="#1F2085" stroke-linecap="round" stroke-linejoin="round"/>
<path d="M19.502 11.8782H34.6953" stroke="#1F2085" stroke-linecap="round" stroke-linejoin="round"/>
<path d="M19.502 16.4929H28.1849" stroke="#1F2085" stroke-linecap="round" stroke-linejoin="round"/>
<path d="M45 41C50.5228 41 55 36.5228 55 31C55 25.4772 50.5228 21 45 21C39.4772 21 35 25.4772 35 31C35 36.5228 39.4772 41 45 41Z" stroke="#1F2085" stroke-linecap="round" stroke-linejoin="round"/>
<path d="M39.9902 26.8647L42.9061 36.0575L45.1748 26.533" stroke="#1F2085" stroke-linecap="round" stroke-linejoin="round"/>
<path d="M50.3625 26.8647L47.4467 36.0575L45.1738 26.533" stroke="#1F2085" stroke-linecap="round" stroke-linejoin="round"/>
<path d="M39.6621 31.459H50.6906" stroke="#1F2085" stroke-linecap="round" stroke-linejoin="round"/>
</svg>
