<svg width="18" height="18" viewBox="0 0 18 18" fill="none" xmlns="http://www.w3.org/2000/svg">
    <g clip-path="url(#hg3o111hma)">
        <path d="M7.27 1.245c1.606 0 3.124.622 4.257 1.767a6 6 0 0 1 1.768 4.257 5.949 5.949 0 0 1-1.768 4.258 6 6 0 0 1-4.257 1.767 5.948 5.948 0 0 1-4.258-1.767A6.033 6.033 0 0 1 7.27 1.232m0-1.245c-1.868 0-3.722.71-5.141 2.129-2.839 2.85-2.839 7.456 0 10.295a7.258 7.258 0 0 0 5.14 2.128c1.855 0 3.723-.71 5.142-2.128a7.273 7.273 0 0 0 0-10.283A7.259 7.259 0 0 0 7.27 0v-.013z" fill="#fff"/>
        <path d="m12.088 12.087 5.477 5.477" stroke="#fff" stroke-miterlimit="10"/>
    </g>
    <defs>
        <clipPath id="hg3o111hma">
            <path fill="#fff" d="M0 0h18v18H0z"/>
        </clipPath>
    </defs>
</svg>
