<?xml version="1.0" encoding="UTF-8"?>
<svg id="_레이어_2" data-name="레이어 2" xmlns="http://www.w3.org/2000/svg" viewBox="0 0 1168.93 921.45">
  <defs>
    <style>
      .cls-1 {
        fill: #d60036;
      }

      .cls-2 {
        fill: #1f2a6a;
      }

      .cls-3 {
        fill: #1b1d81;
      }
    </style>
  </defs>
  <g id="Layer_1" data-name="Layer 1">
    <g>
      <g>
        <g>
          <polyline class="cls-3" points="136.37 737.65 136.2 737.53 136.37 737.65"/>
          <path class="cls-3" d="m73.14,730.76c4.29-3.02,11.19-5.17,19.04-5.16h.19c15.01-.03,28.11,7.91,40.94,16.59l.18.12,3.84,2.57,1.77,1.19,5.16-4.67,21.55-19.55-9.13-6.39c-16.99-11.92-38.96-21.73-63.55-21.75-17.27.01-33.19,3.87-45.46,11.88-12.28,7.91-20.72,20.9-20.71,36.6v.44c0,12.86,6.32,23.29,14.76,30.7h-.01c8.46,7.49,19.02,12.83,29.78,17.68l19.14,8.71h0c9.25,4.16,16.17,7.58,21.19,10.39,5.01,2.8,8.12,5.03,9.63,6.56h0c1.68,1.75,1.77,2.13,2.18,3.34.27.9.45,2.79.44,5.68v.34c-.05,5.34-2.6,9.95-8.23,14.1h0c-5.51,4-13.91,6.75-23.27,6.74h-.04c-17.4,0-31.46-8.37-40.36-19.13l-4.88-5.91-33.61,20.17,8.42,8.2-.14-.13c17.69,17.38,40.73,28.71,70.29,28.68h.27s.02,0,.02,0c19.92-.02,37.38-4.55,50.41-13.87,13.04-9.23,21.08-23.78,21.07-40.79v-.36c0-5.5-.81-10.86-3-15.92-3.32-7.69-9.39-13.79-17.7-19.39l.25.17-.24-.17c-8.35-5.66-19.3-11.22-34.06-18.08l-16.7-7.77-.14-.07c-13.81-6.32-20.63-11.28-23.15-14.22l.11.13-.12-.14c-1.34-1.55-1.68-2.34-1.98-3.27-.26-.84-.38-1.92-.38-3.71.02-2.12.51-3.91,1.49-5.62.98-1.69,2.51-3.32,4.73-4.91Zm63.05,6.77l.18.12-.18-.12Zm-63.04-6.77h0s.06-.04.06-.04l-.06.04Z"/>
          <path class="cls-3" d="m47.67,705.59h0s0,0,0,0Z"/>
          <path class="cls-3" d="m142.97,864.86h-.01s.01,0,.01,0Z"/>
          <polyline class="cls-3" points="297.58 751.61 297.58 751.61 297.58 751.61"/>
          <polyline class="cls-3" points="275.68 840.26 275.81 840.12 275.68 840.26"/>
          <path class="cls-3" d="m297.58,751.61h0s.01,0,.01,0c-14.42-11.45-32.13-15.83-47.65-15.87h-.19c-9.76,0-17.43,1.26-24.3,3.97-3.36,1.32-6.42,2.99-9.43,4.78l-3.35-9.81-40.32,3.87,5.06,11.31c5.7,12.7,6.91,26.42,6.91,41.15v130.45h39.95v-46.78c7.54,2.13,15.34,3.41,24.41,3.4h.34c14.49-.04,32.17-4.42,47.03-15.49,14.84-10.98,26.24-29.4,26.22-54.59v-.61c.03-25.59-10.24-44.39-24.68-55.77Zm-21.76,88.51l-.14.14.14-.14Zm-42.44-67.8c4.11-2.83,8.8-4.63,16.24-4.68h.08c5.41-.02,13.99,1.94,20.41,7.39l-.12-.1.12.09c6.53,5.61,12.07,14.42,12.21,32.01-.05,13.69-4.2,23.04-10.51,29.35-6.33,6.26-15.26,9.76-26.35,9.79h-.06c-6.95.01-14.23-2.51-21.12-6.15v-57.79c2.7-4.05,5.65-7.5,9.11-9.92Z"/>
          <polygon class="cls-3" points="296.05 862.57 296.04 862.58 295.88 862.7 296.05 862.57"/>
          <path class="cls-3" d="m449.77,835.18v-51.89c0-12.7-5.9-24.83-16.01-33.52-10.11-8.71-24.37-14.04-41.24-14.03h-.06c-17.94,0-32.88,4.14-48.01,8.64l-8.86,2.65,2.97,8.76,7.82,23,8.02-2.54.3-.09c12.95-4.15,25.08-8.55,36.72-8.52h.15c6.6,0,11.23,1.87,14.02,4.23,2.76,2.44,4.06,5.07,4.2,9.18-7.46-1.76-15.5-3.04-24.01-3.05h0s-.07,0-.07,0h-.09c-17.78,0-32.72,5.7-43.16,15.28-10.45,9.54-16.18,22.8-16.17,36.71v.17c0,12.94,5.29,25.29,15.14,34.06,9.84,8.81,23.85,13.87,40.6,13.86h.54c13.29.01,24.77-3.22,34.63-9.23l3.84,10.29,39.92-3.89-5.23-11.37c-4.1-8.94-5.96-18.84-5.96-28.69Zm-51.32,5.83h0c-4.86,3.21-9.66,5.11-16.31,5.16-6.38-.12-9.54-2.05-12.14-4.86-2.41-2.71-3.77-6.78-3.75-10.32v-.03c0-5.94,1.74-11.21,4.94-14.74,3.32-3.56,8.09-6.23,17.46-6.33h.1c7.03,0,14.06,1.44,21.09,3.49v17.55c-3.73,3.86-7.45,7.46-11.37,10.08Zm-28.39.38l-.06-.07h0s.06.07.06.07Z"/>
          <polygon class="cls-3" points="341.42 864.22 341.42 864.21 341.2 864.01 341.42 864.22"/>
          <path class="cls-3" d="m590.08,823.76l-5.58,5.07h0c-5.06,4.59-10.54,8.96-16.44,12.15-5.91,3.19-12.2,5.2-19.06,5.2h-.21c-8.6,0-17.99-2.45-24.72-8.16l.14.12-.13-.11c-6.77-5.82-11.94-14.7-12.07-31.47.1-15.82,4.8-24.73,11.18-30.49,6.38-5.71,15.45-8.43,25.06-8.43,8.25.04,14.05,2.01,19.02,5.15h0c4.92,3.13,8.98,7.64,12.51,12.99l.18.27,2.85,4.3,1.34,2.02,36.52-18.32-7.44-8.52-.11-.13c-14.95-17.31-36.16-29.69-64.53-29.66h-.36c-17.19.03-35.89,4.19-50.88,15.65l-.2.15.2-.15c-15.03,11.4-25.33,30.44-25.3,56.4v.76c-.04,25.98,11.42,44.56,26.96,55.19h0c15.51,10.73,34.2,14.3,50.13,14.33h.38c26.61.03,45.21-10.4,61.62-23.91l-.12.09,8.74-7.11-8.74-6.88-20.97-16.51Zm-41.98-61.59h.18-.18Zm-24.88,13.9h0s.21-.19.21-.19l-.21.19Z"/>
          <polygon class="cls-3" points="752.6 763.52 752.6 763.53 752.61 763.53 752.6 763.52"/>
          <polygon class="cls-3" points="637.25 856.09 637.25 856.09 637.25 856.08 637.25 856.09"/>
          <path class="cls-3" d="m748.35,830.98l-7.09,3.29c-13.8,6.41-30.13,11.92-45.43,11.91h-.12c-10.84,0-19.51-2.48-25.3-7.46-4.46-3.84-7.95-9.43-9.65-18.55h104.07v-18.06c-.06-8.11-2.28-23.73-12.23-38.58-9.84-14.86-28.42-27.82-57.04-27.79h-.72c-25.45-.02-44.84,8.88-57.25,22.73-12.47,13.83-17.79,31.81-17.79,49.22v.03c0,17.25,5.17,34.87,17.45,48.36,12.25,13.5,31.36,22,56.46,21.99h.23c23.28,0,43.31-5.51,63.37-12.32l2.59-.88,4.82-1.64,3.29-1.12-19.66-31.14Zm-77.33-55.63c5.19-4.88,11.53-7.6,22.32-7.7,10.15.07,17.41,3.65,22.78,9.14,3.11,3.22,5.44,7.2,6.92,11.5h-60.27c2.29-5.52,5.04-9.87,8.24-12.93Z"/>
          <polygon class="cls-3" points="637.4 758.68 637.59 758.47 637.58 758.48 637.4 758.68"/>
        </g>
        <path class="cls-1" d="m1034.71,813.16c29.13-36.91,47.03-74.31,53.15-112.1l1.42-8.77h-61.15v7.56c-.03,26.06-5.93,49.86-17.8,71.86-15.74-29.45-29.18-50.1-41.07-62.45-13.48-14.04-30.21-21.6-48.55-21.53-28.33-.1-53.27,13.22-72.86,38.06-19.77,24.76-29.66,54.86-29.63,89.09-.02,28.77,6.99,52.83,21.66,71.11,14.56,18.38,35.19,27.95,59.34,27.82,16.75,0,33.9-6.06,51.33-17.37,15.38-10,31.09-24.15,47.32-42.38.43.68.8,1.26,1.09,1.73l.1.18,14.35,21.53,14.09,19.84c1.02,1.46,3.02,4.41,5.86,8.6l2.25,3.31h69.17l-10.8-12.51c-16.24-18.79-36.07-46.71-59.28-83.57Zm-97.76,44.55c-11.95,9.47-21.82,13.42-28.78,13.34-4.55-.02-8.11-1.12-11.49-3.41-3.36-2.29-6.59-5.97-9.51-11.5-5.84-10.98-9.16-27.2-9.13-48.55,0-20.93,4.21-38.93,12.42-54.45,4.1-7.72,8.4-13.18,12.43-16.46,4.09-3.28,7.68-4.53,11.65-4.56,1.95,0,4.34.66,7.45,2.7,3.08,2.03,6.71,5.43,10.58,10.28,7.84,9.72,19.27,28.55,33.62,55.81l8.96,17.02c-14.21,17.69-27.05,31.02-38.19,39.78Z"/>
        <g>
          <path class="cls-1" d="m1117.7,719.51h-5.47v-22.05h-8.07v-4.76h21.6v4.76h-8.07v22.05Z"/>
          <path class="cls-1" d="m1155.24,719.49h-5.1v-20.82l-4.88,20.82h-5.26l-4.78-20.82h-.1v20.82h-5.11v-26.8h8l4.75,20.27h.03l4.58-20.27h7.86v26.8Z"/>
        </g>
      </g>
      <g>
        <path class="cls-2" d="m1026.44,400.18c88.78-62.13,142.49-124.15,142.49-143.22,0-25.6-96.75,32.03-245.16,81.14-88.24-45.64-194.74-82.01-310.03-87.38v-75.93c41.67-6.94,73.44-43.14,73.44-86.78,0-48.6-39.4-88-88-88s-88,39.4-88,88c0,43.64,31.77,79.84,73.44,86.78v75.23h-.16c-126.52,0-243.64,38.61-339.3,88.09C96.75,288.99,0,231.36,0,256.96c0,19.07,53.71,81.09,142.49,143.22C53.71,462.31,0,524.32,0,543.4c0,25.6,96.75-32.03,245.16-81.14,17.67,9.14,36.08,17.91,55.14,26.13-74.8,61.37-74.49,171-74.44,175.71l77.65-.71c0-.8.3-80.24,48.54-116.96,15.65-11.91,35.51-18.34,59.32-19.39,54.7,14.52,112.83,23.3,173.1,23.3s118.77-8.83,173.62-23.44c27.71-.28,50.49,6.19,68.01,19.53,48.24,36.72,48.54,116.16,48.54,116.96l77.65.71c.05-4.79.37-117.5-77.7-178.32,16.94-7.46,33.37-15.34,49.19-23.53,148.4,49.11,245.16,106.74,245.16,81.14,0-19.07-53.71-81.09-142.49-143.22ZM548.72,86.53c0-27.9,22.61-50.51,50.51-50.51s50.51,22.61,50.51,50.51-22.61,50.51-50.51,50.51-50.51-22.61-50.51-50.51Zm-171.45,313.65c0-55.06,44.63-99.69,99.69-99.69s99.69,44.63,99.69,99.69-44.63,99.69-99.69,99.69-99.69-44.63-99.69-99.69Zm210.33,124.78c-29.98,0-54.29-7.24-54.29-16.17s24.31-16.17,54.29-16.17,54.29,7.24,54.29,16.17-24.31,16.17-54.29,16.17Zm111.34-25.09c-55.06,0-99.69-44.63-99.69-99.69s44.63-99.69,99.69-99.69,99.69,44.63,99.69,99.69-44.63,99.69-99.69,99.69Z">
          <!-- <animate 
            dur="3s" 
            repeatCount="indefinite"
            attributeName="d"
            values="
              m1026.44,400.18c88.78-62.13,142.49-124.15,142.49-143.22,0-25.6-96.75,32.03-245.16,81.14-88.24-45.64-194.74-82.01-310.03-87.38v-75.93c41.67-6.94,73.44-43.14,73.44-86.78,0-48.6-39.4-88-88-88s-88,39.4-88,88c0,43.64,31.77,79.84,73.44,86.78v75.23h-.16c-126.52,0-243.64,38.61-339.3,88.09C96.75,288.99,0,231.36,0,256.96c0,19.07,53.71,81.09,142.49,143.22C53.71,462.31,0,524.32,0,543.4c0,25.6,96.75-32.03,245.16-81.14,17.67,9.14,36.08,17.91,55.14,26.13-74.8,61.37-74.49,171-74.44,175.71l77.65-.71c0-.8.3-80.24,48.54-116.96,15.65-11.91,35.51-18.34,59.32-19.39,54.7,14.52,112.83,23.3,173.1,23.3s118.77-8.83,173.62-23.44c27.71-.28,50.49,6.19,68.01,19.53,48.24,36.72,48.54,116.16,48.54,116.96l77.65.71c.05-4.79.37-117.5-77.7-178.32,16.94-7.46,33.37-15.34,49.19-23.53,148.4,49.11,245.16,106.74,245.16,81.14,0-19.07-53.71-81.09-142.49-143.22ZM548.72,86.53c0-27.9,22.61-50.51,50.51-50.51s50.51,22.61,50.51,50.51-22.61,50.51-50.51,50.51-50.51-22.61-50.51-50.51Zm-171.45,313.65c0-55.06,44.63-99.69,99.69-99.69s99.69,44.63,99.69,99.69-44.63,99.69-99.69,99.69-99.69-44.63-99.69-99.69Zm210.33,124.78c-29.98,0-54.29-7.24-54.29-16.17s24.31-16.17,54.29-16.17,54.29,7.24,54.29,16.17-24.31,16.17-54.29,16.17Zm111.34-25.09c-55.06,0-99.69-44.63-99.69-99.69s44.63-99.69,99.69-99.69,99.69,44.63,99.69,99.69-44.63,99.69-99.69,99.69Z;
              m1026.44,400.18c88.78-62.13,142.49-124.15,142.49-143.22,0-25.6-96.75,32.03-245.16,81.14-88.24-45.64-194.74-82.01-310.03-87.38v-75.93c41.67-6.94,73.44-43.14,73.44-86.78,0-48.6-39.4-88-88-88s-88,39.4-88,88c0,43.64,31.77,79.84,73.44,86.78v75.23h-.16c-126.52,0-243.64,38.61-339.3,88.09C96.75,288.99,0,231.36,0,256.96c0,19.07,53.71,81.09,142.49,143.22-13.33,10.34-117.65,92.05-135.51,146.41-.95,2.88-1.91,6.48-.1,9.22,12.15,18.42,127.44-35.93,238.28-93.55,17.67,9.14,36.08,17.91,55.14,26.13-74.8,61.37-74.49,171-74.44,175.71l77.65-.71c0-.8.3-80.24,48.54-116.96,15.65-11.91,35.51-18.34,59.32-19.39,54.7,14.52,112.83,23.3,173.1,23.3s118.77-8.83,173.62-23.44c27.71-.28,50.49,6.19,68.01,19.53,48.24,36.72,48.54,116.16,48.54,116.96l77.65.71c.05-4.79.37-117.5-77.7-178.32,16.94-7.46,33.37-15.34,49.19-23.53,148.4,49.11,245.16,106.74,245.16,81.14,0-19.07-53.71-81.09-142.49-143.22ZM548.72,86.53c0-27.9,22.61-50.51,50.51-50.51s50.51,22.61,50.51,50.51-22.61,50.51-50.51,50.51-50.51-22.61-50.51-50.51Zm-171.45,313.65c0-55.06,44.63-99.69,99.69-99.69s99.69,44.63,99.69,99.69-44.63,99.69-99.69,99.69-99.69-44.63-99.69-99.69Zm210.33,124.78c-29.98,0-54.29-7.24-54.29-16.17s24.31-16.17,54.29-16.17,54.29,7.24,54.29,16.17-24.31,16.17-54.29,16.17Zm111.34-25.09c-55.06,0-99.69-44.63-99.69-99.69s44.63-99.69,99.69-99.69,99.69,44.63,99.69,99.69-44.63,99.69-99.69,99.69Z;
              m1026.44,400.18c88.78-62.13,142.49-124.15,142.49-143.22,0-25.6-96.75,32.03-245.16,81.14-88.24-45.64-194.74-82.01-310.03-87.38v-75.93c41.67-6.94,73.44-43.14,73.44-86.78,0-48.6-39.4-88-88-88s-88,39.4-88,88c0,43.64,31.77,79.84,73.44,86.78v75.23h-.16c-126.52,0-243.64,38.61-339.3,88.09C96.75,288.99,0,231.36,0,256.96c0,19.07,53.71,81.09,142.49,143.22C53.71,462.31,0,524.32,0,543.4c0,25.6,96.75-32.03,245.16-81.14,17.67,9.14,36.08,17.91,55.14,26.13-74.8,61.38-74.49,171-74.44,175.71l77.65-.71c0-.8.3-80.24,48.54-116.96,15.65-11.91,35.51-18.34,59.32-19.39,54.7,14.52,112.83,23.3,173.1,23.3s118.77-8.83,173.62-23.44c27.71-.28,50.49,6.19,68.01,19.53,48.24,36.72,48.54,116.16,48.54,116.96l77.65.71c.05-4.79.37-117.5-77.7-178.32,16.94-7.46,33.37-15.34,49.19-23.53,148.4,49.11,245.16,106.74,245.16,81.14,0-19.07-53.71-81.09-142.49-143.22ZM548.72,86.53c0-27.9,22.61-50.51,50.51-50.51s50.51,22.61,50.51,50.51-22.61,50.51-50.51,50.51-50.51-22.61-50.51-50.51Zm-171.45,313.65c0-55.06,44.63-99.69,99.69-99.69s99.69,44.63,99.69,99.69-44.63,99.69-99.69,99.69-99.69-44.63-99.69-99.69Zm210.33,124.78c-29.98,0-54.29-7.24-54.29-16.17s24.31-16.17,54.29-16.17,54.29,7.24,54.29,16.17-24.31,16.17-54.29,16.17Zm111.34-25.09c-55.06,0-99.69-44.63-99.69-99.69s44.63-99.69,99.69-99.69,99.69,44.63,99.69,99.69-44.63,99.69-99.69,99.69Z
            "

            
          /> -->
        </path>
        <path class="cls-2" d="m698.94,347.4c-29.15,0-52.78,23.63-52.78,52.78s23.63,52.77,52.78,52.77,52.78-23.63,52.78-52.77-23.63-52.78-52.78-52.78Z">
          <animate 
            dur="3s" 
            repeatCount="indefinite" 
            attributeName="d" 
            values="
              m698.94,347.4c-29.15,0-52.78,23.63-52.78,52.78s23.63,52.77,52.78,52.77,52.78-23.63,52.78-52.77-23.63-52.78-52.78-52.78Z; 
              m698.94,400.18c-29.15,0-52.78,1.67-52.78,3.73s23.63,3.73,52.78,3.73,52.78-1.67,52.78-3.73-23.63-3.73-52.78-3.73Z; 
              m698.94,347.4c-29.15,0-52.78,23.63-52.78,52.78s23.63,52.77,52.78,52.77,52.78-23.63,52.78-52.77-23.63-52.78-52.78-52.78Z;
              m698.94,347.4c-29.15,0-52.78,23.63-52.78,52.78s23.63,52.77,52.78,52.77,52.78-23.63,52.78-52.77-23.63-52.78-52.78-52.78Z;
              " 
            keyTimes="0; 0.05; 0.1; 1"
          />
        </path>
        <path class="cls-2" d="m476.96,347.4c-29.15,0-52.78,23.63-52.78,52.78s23.63,52.77,52.78,52.77,52.78-23.63,52.78-52.77-23.63-52.78-52.78-52.78Z">
          <animate 
            dur="3s" 
            repeatCount="indefinite" 
            attributeName="d" 
            values="
              m476.96,347.4c-29.15,0-52.78,23.63-52.78,52.78s23.63,52.77,52.78,52.77,52.78-23.63,52.78-52.77-23.63-52.78-52.78-52.78Z; 
              m476.96,400.18c-29.15,0-52.78,1.67-52.78,3.73s23.63,3.73,52.78,3.73,52.78-1.67,52.78-3.73-23.63-3.73-52.78-3.73Z; 
              m476.96,347.4c-29.15,0-52.78,23.63-52.78,52.78s23.63,52.77,52.78,52.77,52.78-23.63,52.78-52.77-23.63-52.78-52.78-52.78Z; 
              m476.96,347.4c-29.15,0-52.78,23.63-52.78,52.78s23.63,52.77,52.78,52.77,52.78-23.63,52.78-52.77-23.63-52.78-52.78-52.78Z;  
              "
            keyTimes="0; 0.05; 0.1; 1"
          />
        </path>
      </g>
    </g>
  </g>
</svg>