<svg width="260" height="45" viewBox="0 0 260 45" fill="none" xmlns="http://www.w3.org/2000/svg">
    <path d="m91.853 11.194.289 1.887 8.976-.476a22.66 22.66 0 0 1-.527 3.128l2.21.272c.731-3.434.714-5.627.714-7.514V7.114H92.329v1.785h8.976c0 .612 0 1.275-.051 1.989l-9.401.306zm6.137 6.647v-3.74h-2.244v3.74h-5.015v1.819h14.161v-1.819H97.99zm11.508-4.658h5.083V7.131h-7.395v1.785h5.1v2.499h-5.083v6.443h1.411c2.839 0 5.134-.102 7.684-.544l-.238-1.819c-2.21.374-4.182.493-6.562.51v-2.822zm7.65-7.395v15.708h2.244V5.788h-2.244zm9.059 10.251c-1.173 0-1.955-1.241-1.955-3.57 0-2.312.782-3.553 1.955-3.553 1.156 0 1.955 1.241 1.955 3.553 0 2.329-.799 3.57-1.955 3.57zm0-9.146c-2.38 0-4.114 2.142-4.114 5.576 0 3.451 1.734 5.61 4.114 5.61 2.363 0 4.114-2.159 4.114-5.61 0-3.434-1.751-5.576-4.114-5.576zm10.336 4.811h-2.278V5.805h-2.244v15.657h2.244v-7.905h2.278v-1.853zm14.109-5.882h-2.261v11.237h2.261V5.822zm-10.591 4.964c0-1.292.918-2.04 2.074-2.04 1.173 0 2.057.748 2.057 2.04 0 1.258-.884 2.023-2.057 2.023-1.156 0-2.074-.765-2.074-2.023zm6.324 0c0-2.312-1.853-3.978-4.25-3.978-2.397 0-4.267 1.666-4.267 3.978 0 2.278 1.87 3.961 4.267 3.961 2.397 0 4.25-1.683 4.25-3.961zm-3.91 8.619v-3.451h-2.244v5.236h10.812v-1.785h-8.568zm24.496-6.239c-3.536-.595-5.474-3.026-5.474-5.321V6.723H159.1v1.122c0 2.244-1.955 4.726-5.474 5.321l.952 1.887c2.72-.527 4.709-2.057 5.712-4.046 1.003 1.989 3.009 3.502 5.729 4.046l.952-1.887zm-13.685 4.573v1.819h14.178v-1.819h-14.178zm28.303-3.859h-8.721v-1.751h8.245v-1.734h-8.245V8.746h8.602V6.944h-10.88v8.704h10.999V13.88zm-12.665 3.961v1.819h14.178v-1.819h-14.178zm25.907-8.551h-8.619v4.743h11.271v-1.768h-8.976v-1.292h8.602V6.298h-10.914v1.768h8.636V9.29zm3.91 5.882h-14.178v1.802h5.933v4.522h2.244v-4.522h6.001v-1.802zm7.292-2.312h-2.975V8.814h2.975v4.046zm2.193-1.122h2.822v5.474h2.244V5.805h-2.244v4.131h-2.822V7.063h-7.378v7.548h7.378v-2.873zm-3.009 7.667v-3.281h-2.244v5.066h10.676v-1.785h-8.432zm23.288-5.525h-8.721v-1.751h8.245v-1.734h-8.245V8.746h8.602V6.944h-10.88v8.704h10.999V13.88zm-12.665 3.961v1.819h14.178v-1.819H215.84zm18.886 5.593 1.564-.663c-1.428-2.482-2.074-5.338-2.074-8.143 0-2.771.646-5.644 2.074-8.126l-1.564-.663c-1.598 2.618-2.533 5.406-2.533 8.789 0 3.417.935 6.171 2.533 8.806zm4.674-9.877c2.737-.374 4.658-1.547 5.593-3.145.935 1.598 2.856 2.771 5.593 3.145l.799-1.751c-3.179-.391-4.828-1.921-5.049-3.417h4.437V6.604h-11.611v1.785h4.505c-.221 1.496-1.887 3.026-5.083 3.417l.816 1.751zm12.665.901h-14.144v1.785h5.899v5.253h2.244v-5.253h6.001v-1.785zm3.178 8.976c1.615-2.635 2.55-5.389 2.55-8.806 0-3.383-.935-6.171-2.55-8.789l-1.547.663c1.428 2.482 2.074 5.355 2.074 8.126 0 2.805-.646 5.661-2.074 8.143l1.547.663zM92.67 37.39l-.045-1.35 6.36-6.54h1.275l-4.635 4.86-.63.675-2.325 2.355zM91.71 40V29.5h1.11V40h-1.11zm7.545 0-4.53-5.22.75-.81 5.1 6.03h-1.32zm4.988.075c-.76 0-1.445-.17-2.055-.51a3.895 3.895 0 0 1-1.425-1.425c-.35-.61-.525-1.305-.525-2.085 0-.79.175-1.485.525-2.085.35-.6.825-1.07 1.425-1.41.6-.34 1.285-.51 2.055-.51.78 0 1.47.17 2.07.51.61.34 1.085.81 1.425 1.41.35.6.525 1.295.525 2.085 0 .78-.175 1.475-.525 2.085a3.75 3.75 0 0 1-1.425 1.425c-.61.34-1.3.51-2.07.51zm0-.945c.57 0 1.075-.125 1.515-.375.44-.26.785-.62 1.035-1.08.26-.47.39-1.01.39-1.62 0-.62-.13-1.16-.39-1.62a2.654 2.654 0 0 0-1.035-1.065c-.44-.26-.94-.39-1.5-.39s-1.06.13-1.5.39c-.44.25-.79.605-1.05 1.065-.26.46-.39 1-.39 1.62 0 .61.13 1.15.39 1.62.26.46.61.82 1.05 1.08.44.25.935.375 1.485.375zm5.444.87v-7.875h1.02v2.145l-.105-.375c.22-.6.59-1.055 1.11-1.365.52-.32 1.165-.48 1.935-.48v1.035h-.12a.493.493 0 0 0-.12-.015c-.83 0-1.48.255-1.95.765-.47.5-.705 1.215-.705 2.145V40h-1.065zm8.425.075c-.82 0-1.54-.17-2.16-.51a3.83 3.83 0 0 1-1.455-1.425c-.35-.61-.525-1.305-.525-2.085s.165-1.47.495-2.07c.34-.6.8-1.07 1.38-1.41.59-.35 1.25-.525 1.98-.525.74 0 1.395.17 1.965.51.58.33 1.035.8 1.365 1.41.33.6.495 1.295.495 2.085 0 .05-.005.105-.015.165v.165h-6.855v-.795h6.285l-.42.315c0-.57-.125-1.075-.375-1.515-.24-.45-.57-.8-.99-1.05-.42-.25-.905-.375-1.455-.375-.54 0-1.025.125-1.455.375-.43.25-.765.6-1.005 1.05-.24.45-.36.965-.36 1.545v.165c0 .6.13 1.13.39 1.59.27.45.64.805 1.11 1.065.48.25 1.025.375 1.635.375.48 0 .925-.085 1.335-.255.42-.17.78-.43 1.08-.78l.6.69c-.35.42-.79.74-1.32.96-.52.22-1.095.33-1.725.33zm9.673-.075v-1.74l-.045-.285v-2.91c0-.67-.19-1.185-.57-1.545-.37-.36-.925-.54-1.665-.54-.51 0-.995.085-1.455.255-.46.17-.85.395-1.17.675l-.48-.795c.4-.34.88-.6 1.44-.78.56-.19 1.15-.285 1.77-.285 1.02 0 1.805.255 2.355.765.56.5.84 1.265.84 2.295V40h-1.02zm-2.715.075c-.59 0-1.105-.095-1.545-.285-.43-.2-.76-.47-.99-.81-.23-.35-.345-.75-.345-1.2 0-.41.095-.78.285-1.11.2-.34.52-.61.96-.81.45-.21 1.05-.315 1.8-.315h2.715v.795h-2.685c-.76 0-1.29.135-1.59.405-.29.27-.435.605-.435 1.005 0 .45.175.81.525 1.08.35.27.84.405 1.47.405.6 0 1.115-.135 1.545-.405.44-.28.76-.68.96-1.2l.24.735c-.2.52-.55.935-1.05 1.245-.49.31-1.11.465-1.86.465zm9.279-.075V29.5h1.11V40h-1.11zm7.571-7.95c.64 0 1.2.125 1.68.375.49.24.87.61 1.14 1.11.28.5.42 1.13.42 1.89V40h-1.065v-4.47c0-.83-.21-1.455-.63-1.875-.41-.43-.99-.645-1.74-.645-.56 0-1.05.115-1.47.345-.41.22-.73.545-.96.975-.22.42-.33.93-.33 1.53V40H137.9v-7.875h1.02v2.16l-.165-.405c.25-.57.65-1.015 1.2-1.335.55-.33 1.205-.495 1.965-.495zm7.482 8.025a6.19 6.19 0 0 1-1.845-.27c-.58-.19-1.035-.425-1.365-.705l.48-.84c.32.24.73.45 1.23.63.5.17 1.025.255 1.575.255.75 0 1.29-.115 1.62-.345.33-.24.495-.555.495-.945 0-.29-.095-.515-.285-.675-.18-.17-.42-.295-.72-.375-.3-.09-.635-.165-1.005-.225-.37-.06-.74-.13-1.11-.21-.36-.08-.69-.195-.99-.345-.3-.16-.545-.375-.735-.645-.18-.27-.27-.63-.27-1.08 0-.43.12-.815.36-1.155.24-.34.59-.605 1.05-.795.47-.2 1.04-.3 1.71-.3.51 0 1.02.07 1.53.21.51.13.93.305 1.26.525l-.465.855a3.46 3.46 0 0 0-1.125-.51c-.4-.11-.8-.165-1.2-.165-.71 0-1.235.125-1.575.375-.33.24-.495.55-.495.93 0 .3.09.535.27.705.19.17.435.305.735.405.31.09.645.165 1.005.225.37.06.735.135 1.095.225.37.08.705.195 1.005.345.31.14.555.345.735.615.19.26.285.605.285 1.035 0 .46-.13.86-.39 1.2-.25.33-.62.59-1.11.78-.48.18-1.065.27-1.755.27zm6.949 0c-.74 0-1.31-.2-1.71-.6-.4-.4-.6-.965-.6-1.695v-7.395h1.065v7.335c0 .46.115.815.345 1.065.24.25.58.375 1.02.375.47 0 .86-.135 1.17-.405l.375.765c-.21.19-.465.33-.765.42-.29.09-.59.135-.9.135zm-3.72-7.065v-.885h4.875v.885h-4.875zm6.574 6.99v-7.875h1.02v2.145l-.105-.375c.22-.6.59-1.055 1.11-1.365.52-.32 1.165-.48 1.935-.48v1.035h-.12a.493.493 0 0 0-.12-.015c-.83 0-1.48.255-1.95.765-.47.5-.705 1.215-.705 2.145V40h-1.065zm8.525.075c-.67 0-1.255-.125-1.755-.375s-.89-.625-1.17-1.125c-.27-.5-.405-1.125-.405-1.875v-4.575h1.065v4.455c0 .84.205 1.475.615 1.905.42.42 1.005.63 1.755.63.55 0 1.025-.11 1.425-.33.41-.23.72-.56.93-.99.22-.43.33-.945.33-1.545v-4.125h1.065V40h-1.02v-2.16l.165.39c-.25.58-.64 1.035-1.17 1.365-.52.32-1.13.48-1.83.48zm15.913-8.025c.64 0 1.195.125 1.665.375.48.24.85.61 1.11 1.11.27.5.405 1.13.405 1.89V40h-1.065v-4.47c0-.83-.2-1.455-.6-1.875-.39-.43-.945-.645-1.665-.645-.54 0-1.01.115-1.41.345-.39.22-.695.545-.915.975-.21.42-.315.93-.315 1.53V40h-1.065v-4.47c0-.83-.2-1.455-.6-1.875-.4-.43-.96-.645-1.68-.645-.53 0-.995.115-1.395.345-.4.22-.71.545-.93.975-.21.42-.315.93-.315 1.53V40h-1.065v-7.875h1.02v2.13l-.165-.375c.24-.57.625-1.015 1.155-1.335.54-.33 1.175-.495 1.905-.495.77 0 1.425.195 1.965.585.54.38.89.955 1.05 1.725l-.42-.165c.23-.64.635-1.155 1.215-1.545.59-.4 1.295-.6 2.115-.6zm8.664 8.025c-.82 0-1.54-.17-2.16-.51a3.83 3.83 0 0 1-1.455-1.425c-.35-.61-.525-1.305-.525-2.085s.165-1.47.495-2.07c.34-.6.8-1.07 1.38-1.41.59-.35 1.25-.525 1.98-.525.74 0 1.395.17 1.965.51.58.33 1.035.8 1.365 1.41.33.6.495 1.295.495 2.085 0 .05-.005.105-.015.165v.165h-6.855v-.795h6.285l-.42.315c0-.57-.125-1.075-.375-1.515-.24-.45-.57-.8-.99-1.05-.42-.25-.905-.375-1.455-.375-.54 0-1.025.125-1.455.375-.43.25-.765.6-1.005 1.05-.24.45-.36.965-.36 1.545v.165c0 .6.13 1.13.39 1.59.27.45.64.805 1.11 1.065.48.25 1.025.375 1.635.375.48 0 .925-.085 1.335-.255.42-.17.78-.43 1.08-.78l.6.69c-.35.42-.79.74-1.32.96-.52.22-1.095.33-1.725.33zm8.977-8.025c.64 0 1.2.125 1.68.375.49.24.87.61 1.14 1.11.28.5.42 1.13.42 1.89V40h-1.065v-4.47c0-.83-.21-1.455-.63-1.875-.41-.43-.99-.645-1.74-.645-.56 0-1.05.115-1.47.345-.41.22-.73.545-.96.975-.22.42-.33.93-.33 1.53V40h-1.065v-7.875h1.02v2.16l-.165-.405c.25-.57.65-1.015 1.2-1.335.55-.33 1.205-.495 1.965-.495zm7.857 8.025c-.74 0-1.31-.2-1.71-.6-.4-.4-.6-.965-.6-1.695v-7.395h1.065v7.335c0 .46.115.815.345 1.065.24.25.58.375 1.02.375.47 0 .86-.135 1.17-.405l.375.765c-.21.19-.465.33-.765.42-.29.09-.59.135-.9.135zm-3.72-7.065v-.885h4.875v.885h-4.875zm13.02 7.065c-.78 0-1.48-.17-2.1-.51a3.862 3.862 0 0 1-1.44-1.425c-.35-.61-.525-1.305-.525-2.085 0-.79.175-1.485.525-2.085.35-.6.83-1.07 1.44-1.41.62-.34 1.32-.51 2.1-.51.67 0 1.275.13 1.815.39s.965.65 1.275 1.17l-.795.54c-.27-.4-.605-.695-1.005-.885-.4-.19-.835-.285-1.305-.285-.56 0-1.065.13-1.515.39-.45.25-.805.605-1.065 1.065-.26.46-.39 1-.39 1.62 0 .62.13 1.16.39 1.62.26.46.615.82 1.065 1.08.45.25.955.375 1.515.375.47 0 .905-.095 1.305-.285.4-.19.735-.48 1.005-.87l.795.54c-.31.51-.735.9-1.275 1.17-.54.26-1.145.39-1.815.39zm7.51 0c-.76 0-1.445-.17-2.055-.51a3.895 3.895 0 0 1-1.425-1.425c-.35-.61-.525-1.305-.525-2.085 0-.79.175-1.485.525-2.085.35-.6.825-1.07 1.425-1.41.6-.34 1.285-.51 2.055-.51.78 0 1.47.17 2.07.51.61.34 1.085.81 1.425 1.41.35.6.525 1.295.525 2.085 0 .78-.175 1.475-.525 2.085a3.75 3.75 0 0 1-1.425 1.425c-.61.34-1.3.51-2.07.51zm0-.945c.57 0 1.075-.125 1.515-.375.44-.26.785-.62 1.035-1.08.26-.47.39-1.01.39-1.62 0-.62-.13-1.16-.39-1.62a2.654 2.654 0 0 0-1.035-1.065c-.44-.26-.94-.39-1.5-.39s-1.06.13-1.5.39c-.44.25-.79.605-1.05 1.065-.26.46-.39 1-.39 1.62 0 .61.13 1.15.39 1.62.26.46.61.82 1.05 1.08.44.25.935.375 1.485.375zm5.329.945c-.22 0-.41-.08-.57-.24a.824.824 0 0 1-.225-.585c0-.24.075-.435.225-.585.16-.15.35-.225.57-.225.22 0 .405.075.555.225.16.15.24.345.24.585 0 .23-.08.425-.24.585a.73.73 0 0 1-.555.24zm2.549-.075V29.5h1.11v9.54h5.88V40h-6.99zm10.275.075c-.74 0-1.31-.2-1.71-.6-.4-.4-.6-.965-.6-1.695v-7.395h1.065v7.335c0 .46.115.815.345 1.065.24.25.58.375 1.02.375.47 0 .86-.135 1.17-.405l.375.765c-.21.19-.465.33-.765.42-.29.09-.59.135-.9.135zm-3.72-7.065v-.885h4.875v.885h-4.875zm9.43 7.065c-.75 0-1.425-.17-2.025-.51a3.704 3.704 0 0 1-1.395-1.41c-.34-.61-.51-1.31-.51-2.1 0-.8.17-1.5.51-2.1.34-.6.805-1.065 1.395-1.395.6-.34 1.275-.51 2.025-.51.69 0 1.305.155 1.845.465.55.31.985.765 1.305 1.365.33.59.495 1.315.495 2.175 0 .85-.16 1.575-.48 2.175-.32.6-.755 1.06-1.305 1.38-.54.31-1.16.465-1.86.465zm.075-.945c.56 0 1.06-.125 1.5-.375.45-.26.8-.62 1.05-1.08.26-.47.39-1.01.39-1.62 0-.62-.13-1.16-.39-1.62-.25-.46-.6-.815-1.05-1.065-.44-.26-.94-.39-1.5-.39-.55 0-1.045.13-1.485.39-.44.25-.79.605-1.05 1.065-.26.46-.39 1-.39 1.62 0 .61.13 1.15.39 1.62.26.46.61.82 1.05 1.08.44.25.935.375 1.485.375zm2.97.87v-2.37l.105-1.59-.15-1.59v-5.58h1.065V40h-1.02zm3.341.075c-.22 0-.41-.08-.57-.24a.824.824 0 0 1-.225-.585c0-.24.075-.435.225-.585.16-.15.35-.225.57-.225.22 0 .405.075.555.225.16.15.24.345.24.585 0 .23-.08.425-.24.585a.73.73 0 0 1-.555.24z" fill="#fff"/>
    <path d="M40 45c22.091 0 40-10.074 40-22.5S62.091 0 40 0 0 10.074 0 22.5 17.909 45 40 45z" fill="#282973"/>
    <path d="M12.075 12.027h10.122v2.967h-.668c-.644 0-1.041.037-1.19.108-.237.113-.41.272-.513.477-.104.205-.157.59-.157 1.155v5.71l6.465-6.204c.287-.277.46-.464.52-.561a.51.51 0 0 0 .09-.254.357.357 0 0 0-.171-.323c-.115-.071-.404-.108-.869-.108h-.831v-2.967h9.379v2.967h-.312c-.436 0-.738.024-.907.07-.17.046-.374.146-.618.3-.243.154-.556.405-.944.753l-5.012 4.488 5.978 8.354c.515.718.892 1.144 1.13 1.277.316.184.772.277 1.367.277h.402v2.967H24.871v-2.967h.416c.763 0 1.227-.037 1.39-.108.162-.072.245-.164.245-.277 0-.124-.154-.416-.461-.877l-3.648-5.38-3.144 2.815v2.159c0 .53.05.897.149 1.102.099.205.24.35.423.437.183.087.552.13 1.108.13h.846v2.968H12.073v-2.968h.763c.588 0 .982-.049 1.18-.146a.877.877 0 0 0 .435-.468c.08-.175.12-.595.12-1.262V16.921c0-.635-.045-1.061-.135-1.277a.95.95 0 0 0-.435-.485c-.198-.108-.558-.162-1.076-.162h-.853V12.03l.003-.003zM36.335 12.027h10.122v2.967h-.921c-.535 0-.89.05-1.063.146a.878.878 0 0 0-.386.461c-.084.21-.126.613-.126 1.207V28.68c0 .644.035 1.06.104 1.245.07.184.188.318.357.4.208.123.52.184.937.184h1.1v2.968H36.336V30.51h.822c.588 0 .973-.045 1.151-.13a.81.81 0 0 0 .396-.415c.085-.19.127-.566.127-1.131V16.916c0-.665-.042-1.104-.127-1.315a.953.953 0 0 0-.427-.484c-.14-.083-.479-.123-1.017-.123h-.928v-2.967h.002zM64.609 12.027h2.11l2.034 7.704-2.765.83c-.921-1.834-1.788-3.136-2.601-3.905-1.13-1.057-2.353-1.584-3.672-1.584-.961 0-1.86.276-2.697.83-.837.555-1.501 1.37-1.992 2.446-.49 1.076-.735 2.336-.735 3.782 0 2.205.562 4.1 1.688 5.69 1.124 1.588 2.598 2.383 4.422 2.383 1.159 0 2.274-.343 3.344-1.03 1.337-.851 2.492-1.993 3.464-3.43l2.303 1.769c-1.495 2.113-2.862 3.582-4.1 4.413-1.91 1.282-4.04 1.922-6.387 1.922-1.951 0-3.716-.485-5.295-1.454-1.58-.969-2.84-2.324-3.78-4.066-.94-1.743-1.412-3.644-1.412-5.705 0-2.06.458-3.919 1.375-5.604.916-1.687 2.164-3 3.742-3.944 1.58-.944 3.34-1.416 5.28-1.416 1.94 0 3.698.43 5.184 1.292l.49-.923z" fill="#fff"/>
</svg>
