<svg width="260" height="45" viewBox="0 0 260 45" fill="none" xmlns="http://www.w3.org/2000/svg">
<path d="M92.295 7.08V8.882H102.206V7.08H92.295ZM90.68 17.892V19.711H104.909V17.892H90.68ZM101.305 7.08V8.457C101.305 10.276 101.305 12.571 100.591 15.767L102.818 16.005C103.549 12.588 103.532 10.361 103.532 8.457V7.08H101.305ZM101.713 10.871L91.802 11.177L92.108 13.098L101.713 12.571V10.871ZM95.729 14.118V18.555H97.99V14.118H95.729ZM117.165 5.754V21.547H119.426V5.754H117.165ZM107.169 16.039V17.875H108.563C111.436 17.875 113.748 17.79 116.298 17.331L116.077 15.512C113.578 15.937 111.351 16.039 108.563 16.039H107.169ZM107.152 7.097V8.899H112.269V11.398H107.169V16.719H109.464V13.183H114.581V7.097H107.152ZM126.173 6.859C123.776 6.859 122.042 9.035 122.042 12.469C122.042 15.937 123.776 18.113 126.173 18.113C128.57 18.113 130.304 15.937 130.304 12.469C130.304 9.035 128.57 6.859 126.173 6.859ZM126.173 8.916C127.346 8.916 128.145 10.157 128.145 12.469C128.145 14.815 127.346 16.073 126.173 16.073C125 16.073 124.218 14.815 124.218 12.469C124.218 10.157 125 8.916 126.173 8.916ZM132.021 5.771V21.513H134.299V5.771H132.021ZM133.789 11.704V13.574H136.577V11.704H133.789ZM148.408 5.788V17.093H150.686V5.788H148.408ZM140.197 19.439V21.241H151.077V19.439H140.197ZM140.197 15.954V20.17H142.458V15.954H140.197ZM142.118 6.774C139.704 6.774 137.834 8.44 137.834 10.769C137.834 13.081 139.704 14.764 142.118 14.764C144.532 14.764 146.385 13.081 146.385 10.769C146.385 8.44 144.532 6.774 142.118 6.774ZM142.118 8.729C143.274 8.729 144.175 9.477 144.175 10.769C144.175 12.044 143.274 12.792 142.118 12.792C140.945 12.792 140.044 12.044 140.044 10.769C140.044 9.477 140.945 8.729 142.118 8.729ZM159.083 6.672V7.811C159.083 10.072 157.128 12.571 153.575 13.183L154.544 15.053C158.624 14.254 161.055 11.228 161.055 7.811V6.672H159.083ZM159.542 6.672V7.811C159.542 11.279 161.956 14.254 166.036 15.053L167.005 13.183C163.435 12.571 161.497 10.123 161.497 7.811V6.672H159.542ZM153.252 17.756V19.592H167.498V17.756H153.252ZM170.556 13.88V15.648H181.623V13.88H170.556ZM168.89 17.875V19.711H183.136V17.875H168.89ZM170.556 6.91V14.373H172.851V8.729H181.487V6.91H170.556ZM172.154 10.378V12.129H181.13V10.378H172.154ZM186.144 6.264V8.066H194.831V9.273H186.178V13.353H188.473V10.956H197.126V6.264H186.144ZM186.178 12.248V14.033H197.517V12.248H186.178ZM184.512 15.189V17.008H198.775V15.189H184.512ZM190.479 15.852V21.547H192.74V15.852H190.479ZM200.797 7.029V14.645H208.243V7.029H200.797ZM206.016 8.814V12.86H203.024V8.814H206.016ZM211.065 5.788V17.246H213.326V5.788H211.065ZM207.631 9.919V11.721H211.643V9.919H207.631ZM202.939 19.439V21.241H213.683V19.439H202.939ZM202.939 16.158V20.374H205.2V16.158H202.939ZM217.472 13.88V15.648H228.539V13.88H217.472ZM215.806 17.875V19.711H230.052V17.875H215.806ZM217.472 6.91V14.373H219.767V8.729H228.403V6.91H217.472ZM219.07 10.378V12.129H228.046V10.378H219.07ZM234.726 23.434L236.273 22.788C234.845 20.306 234.199 17.433 234.199 14.645C234.199 11.874 234.845 9.001 236.273 6.519L234.726 5.856C233.111 8.474 232.176 11.262 232.176 14.645C232.176 18.045 233.111 20.816 234.726 23.434ZM243.684 7.522V7.981C243.684 9.596 242.018 11.364 238.55 11.789L239.383 13.557C243.378 13.013 245.639 10.752 245.639 7.981V7.522H243.684ZM244.33 7.522V7.981C244.33 10.752 246.591 13.013 250.603 13.557L251.419 11.789C247.951 11.364 246.285 9.596 246.285 7.981V7.522H244.33ZM243.803 15.75V21.53H246.047V15.75H243.803ZM237.87 14.458V16.26H252.099V14.458H237.87ZM239.128 6.57V8.355H250.807V6.57H239.128ZM255.243 23.434C256.841 20.816 257.776 18.045 257.776 14.645C257.776 11.262 256.841 8.474 255.243 5.856L253.679 6.519C255.107 9.001 255.77 11.874 255.77 14.645C255.77 17.433 255.107 20.306 253.679 22.788L255.243 23.434Z" fill="#D0D0D0"/>
<path d="M92.67 37.39L92.625 36.04L98.985 29.5H100.26L95.625 34.36L94.995 35.035L92.67 37.39ZM91.71 40V29.5H92.82V40H91.71ZM99.255 40L94.725 34.78L95.475 33.97L100.575 40H99.255ZM104.243 40.075C103.483 40.075 102.798 39.905 102.188 39.565C101.588 39.215 101.113 38.74 100.763 38.14C100.413 37.53 100.238 36.835 100.238 36.055C100.238 35.265 100.413 34.57 100.763 33.97C101.113 33.37 101.588 32.9 102.188 32.56C102.788 32.22 103.473 32.05 104.243 32.05C105.023 32.05 105.713 32.22 106.313 32.56C106.923 32.9 107.398 33.37 107.738 33.97C108.088 34.57 108.263 35.265 108.263 36.055C108.263 36.835 108.088 37.53 107.738 38.14C107.398 38.74 106.923 39.215 106.313 39.565C105.703 39.905 105.013 40.075 104.243 40.075ZM104.243 39.13C104.813 39.13 105.318 39.005 105.758 38.755C106.198 38.495 106.543 38.135 106.793 37.675C107.053 37.205 107.183 36.665 107.183 36.055C107.183 35.435 107.053 34.895 106.793 34.435C106.543 33.975 106.198 33.62 105.758 33.37C105.318 33.11 104.818 32.98 104.258 32.98C103.698 32.98 103.198 33.11 102.758 33.37C102.318 33.62 101.968 33.975 101.708 34.435C101.448 34.895 101.318 35.435 101.318 36.055C101.318 36.665 101.448 37.205 101.708 37.675C101.968 38.135 102.318 38.495 102.758 38.755C103.198 39.005 103.693 39.13 104.243 39.13ZM109.687 40V32.125H110.707V34.27L110.602 33.895C110.822 33.295 111.192 32.84 111.712 32.53C112.232 32.21 112.877 32.05 113.647 32.05V33.085C113.607 33.085 113.567 33.085 113.527 33.085C113.487 33.075 113.447 33.07 113.407 33.07C112.577 33.07 111.927 33.325 111.457 33.835C110.987 34.335 110.752 35.05 110.752 35.98V40H109.687ZM118.112 40.075C117.292 40.075 116.572 39.905 115.952 39.565C115.332 39.215 114.847 38.74 114.497 38.14C114.147 37.53 113.972 36.835 113.972 36.055C113.972 35.275 114.137 34.585 114.467 33.985C114.807 33.385 115.267 32.915 115.847 32.575C116.437 32.225 117.097 32.05 117.827 32.05C118.567 32.05 119.222 32.22 119.792 32.56C120.372 32.89 120.827 33.36 121.157 33.97C121.487 34.57 121.652 35.265 121.652 36.055C121.652 36.105 121.647 36.16 121.637 36.22C121.637 36.27 121.637 36.325 121.637 36.385H114.782V35.59H121.067L120.647 35.905C120.647 35.335 120.522 34.83 120.272 34.39C120.032 33.94 119.702 33.59 119.282 33.34C118.862 33.09 118.377 32.965 117.827 32.965C117.287 32.965 116.802 33.09 116.372 33.34C115.942 33.59 115.607 33.94 115.367 34.39C115.127 34.84 115.007 35.355 115.007 35.935V36.1C115.007 36.7 115.137 37.23 115.397 37.69C115.667 38.14 116.037 38.495 116.507 38.755C116.987 39.005 117.532 39.13 118.142 39.13C118.622 39.13 119.067 39.045 119.477 38.875C119.897 38.705 120.257 38.445 120.557 38.095L121.157 38.785C120.807 39.205 120.367 39.525 119.837 39.745C119.317 39.965 118.742 40.075 118.112 40.075ZM127.785 40V38.26L127.74 37.975V35.065C127.74 34.395 127.55 33.88 127.17 33.52C126.8 33.16 126.245 32.98 125.505 32.98C124.995 32.98 124.51 33.065 124.05 33.235C123.59 33.405 123.2 33.63 122.88 33.91L122.4 33.115C122.8 32.775 123.28 32.515 123.84 32.335C124.4 32.145 124.99 32.05 125.61 32.05C126.63 32.05 127.415 32.305 127.965 32.815C128.525 33.315 128.805 34.08 128.805 35.11V40H127.785ZM125.07 40.075C124.48 40.075 123.965 39.98 123.525 39.79C123.095 39.59 122.765 39.32 122.535 38.98C122.305 38.63 122.19 38.23 122.19 37.78C122.19 37.37 122.285 37 122.475 36.67C122.675 36.33 122.995 36.06 123.435 35.86C123.885 35.65 124.485 35.545 125.235 35.545H127.95V36.34H125.265C124.505 36.34 123.975 36.475 123.675 36.745C123.385 37.015 123.24 37.35 123.24 37.75C123.24 38.2 123.415 38.56 123.765 38.83C124.115 39.1 124.605 39.235 125.235 39.235C125.835 39.235 126.35 39.1 126.78 38.83C127.22 38.55 127.54 38.15 127.74 37.63L127.98 38.365C127.78 38.885 127.43 39.3 126.93 39.61C126.44 39.92 125.82 40.075 125.07 40.075ZM134.349 40V29.5H135.459V40H134.349ZM141.92 32.05C142.56 32.05 143.12 32.175 143.6 32.425C144.09 32.665 144.47 33.035 144.74 33.535C145.02 34.035 145.16 34.665 145.16 35.425V40H144.095V35.53C144.095 34.7 143.885 34.075 143.465 33.655C143.055 33.225 142.475 33.01 141.725 33.01C141.165 33.01 140.675 33.125 140.255 33.355C139.845 33.575 139.525 33.9 139.295 34.33C139.075 34.75 138.965 35.26 138.965 35.86V40H137.9V32.125H138.92V34.285L138.755 33.88C139.005 33.31 139.405 32.865 139.955 32.545C140.505 32.215 141.16 32.05 141.92 32.05ZM149.402 40.075C148.752 40.075 148.137 39.985 147.557 39.805C146.977 39.615 146.522 39.38 146.192 39.1L146.672 38.26C146.992 38.5 147.402 38.71 147.902 38.89C148.402 39.06 148.927 39.145 149.477 39.145C150.227 39.145 150.767 39.03 151.097 38.8C151.427 38.56 151.592 38.245 151.592 37.855C151.592 37.565 151.497 37.34 151.307 37.18C151.127 37.01 150.887 36.885 150.587 36.805C150.287 36.715 149.952 36.64 149.582 36.58C149.212 36.52 148.842 36.45 148.472 36.37C148.112 36.29 147.782 36.175 147.482 36.025C147.182 35.865 146.937 35.65 146.747 35.38C146.567 35.11 146.477 34.75 146.477 34.3C146.477 33.87 146.597 33.485 146.837 33.145C147.077 32.805 147.427 32.54 147.887 32.35C148.357 32.15 148.927 32.05 149.597 32.05C150.107 32.05 150.617 32.12 151.127 32.26C151.637 32.39 152.057 32.565 152.387 32.785L151.922 33.64C151.572 33.4 151.197 33.23 150.797 33.13C150.397 33.02 149.997 32.965 149.597 32.965C148.887 32.965 148.362 33.09 148.022 33.34C147.692 33.58 147.527 33.89 147.527 34.27C147.527 34.57 147.617 34.805 147.797 34.975C147.987 35.145 148.232 35.28 148.532 35.38C148.842 35.47 149.177 35.545 149.537 35.605C149.907 35.665 150.272 35.74 150.632 35.83C151.002 35.91 151.337 36.025 151.637 36.175C151.947 36.315 152.192 36.52 152.372 36.79C152.562 37.05 152.657 37.395 152.657 37.825C152.657 38.285 152.527 38.685 152.267 39.025C152.017 39.355 151.647 39.615 151.157 39.805C150.677 39.985 150.092 40.075 149.402 40.075ZM156.351 40.075C155.611 40.075 155.041 39.875 154.641 39.475C154.241 39.075 154.041 38.51 154.041 37.78V30.385H155.106V37.72C155.106 38.18 155.221 38.535 155.451 38.785C155.691 39.035 156.031 39.16 156.471 39.16C156.941 39.16 157.331 39.025 157.641 38.755L158.016 39.52C157.806 39.71 157.551 39.85 157.251 39.94C156.961 40.03 156.661 40.075 156.351 40.075ZM152.631 33.01V32.125H157.506V33.01H152.631ZM159.205 40V32.125H160.225V34.27L160.12 33.895C160.34 33.295 160.71 32.84 161.23 32.53C161.75 32.21 162.395 32.05 163.165 32.05V33.085C163.125 33.085 163.085 33.085 163.045 33.085C163.005 33.075 162.965 33.07 162.925 33.07C162.095 33.07 161.445 33.325 160.975 33.835C160.505 34.335 160.27 35.05 160.27 35.98V40H159.205ZM167.73 40.075C167.06 40.075 166.475 39.95 165.975 39.7C165.475 39.45 165.085 39.075 164.805 38.575C164.535 38.075 164.4 37.45 164.4 36.7V32.125H165.465V36.58C165.465 37.42 165.67 38.055 166.08 38.485C166.5 38.905 167.085 39.115 167.835 39.115C168.385 39.115 168.86 39.005 169.26 38.785C169.67 38.555 169.98 38.225 170.19 37.795C170.41 37.365 170.52 36.85 170.52 36.25V32.125H171.585V40H170.565V37.84L170.73 38.23C170.48 38.81 170.09 39.265 169.56 39.595C169.04 39.915 168.43 40.075 167.73 40.075ZM183.643 32.05C184.283 32.05 184.838 32.175 185.308 32.425C185.788 32.665 186.158 33.035 186.418 33.535C186.688 34.035 186.823 34.665 186.823 35.425V40H185.758V35.53C185.758 34.7 185.558 34.075 185.158 33.655C184.768 33.225 184.213 33.01 183.493 33.01C182.953 33.01 182.483 33.125 182.083 33.355C181.693 33.575 181.388 33.9 181.168 34.33C180.958 34.75 180.853 35.26 180.853 35.86V40H179.788V35.53C179.788 34.7 179.588 34.075 179.188 33.655C178.788 33.225 178.228 33.01 177.508 33.01C176.978 33.01 176.513 33.125 176.113 33.355C175.713 33.575 175.403 33.9 175.183 34.33C174.973 34.75 174.868 35.26 174.868 35.86V40H173.803V32.125H174.823V34.255L174.658 33.88C174.898 33.31 175.283 32.865 175.813 32.545C176.353 32.215 176.988 32.05 177.718 32.05C178.488 32.05 179.143 32.245 179.683 32.635C180.223 33.015 180.573 33.59 180.733 34.36L180.313 34.195C180.543 33.555 180.948 33.04 181.528 32.65C182.118 32.25 182.823 32.05 183.643 32.05ZM192.307 40.075C191.487 40.075 190.767 39.905 190.147 39.565C189.527 39.215 189.042 38.74 188.692 38.14C188.342 37.53 188.167 36.835 188.167 36.055C188.167 35.275 188.332 34.585 188.662 33.985C189.002 33.385 189.462 32.915 190.042 32.575C190.632 32.225 191.292 32.05 192.022 32.05C192.762 32.05 193.417 32.22 193.987 32.56C194.567 32.89 195.022 33.36 195.352 33.97C195.682 34.57 195.847 35.265 195.847 36.055C195.847 36.105 195.842 36.16 195.832 36.22C195.832 36.27 195.832 36.325 195.832 36.385H188.977V35.59H195.262L194.842 35.905C194.842 35.335 194.717 34.83 194.467 34.39C194.227 33.94 193.897 33.59 193.477 33.34C193.057 33.09 192.572 32.965 192.022 32.965C191.482 32.965 190.997 33.09 190.567 33.34C190.137 33.59 189.802 33.94 189.562 34.39C189.322 34.84 189.202 35.355 189.202 35.935V36.1C189.202 36.7 189.332 37.23 189.592 37.69C189.862 38.14 190.232 38.495 190.702 38.755C191.182 39.005 191.727 39.13 192.337 39.13C192.817 39.13 193.262 39.045 193.672 38.875C194.092 38.705 194.452 38.445 194.752 38.095L195.352 38.785C195.002 39.205 194.562 39.525 194.032 39.745C193.512 39.965 192.937 40.075 192.307 40.075ZM201.284 32.05C201.924 32.05 202.484 32.175 202.964 32.425C203.454 32.665 203.834 33.035 204.104 33.535C204.384 34.035 204.524 34.665 204.524 35.425V40H203.459V35.53C203.459 34.7 203.249 34.075 202.829 33.655C202.419 33.225 201.839 33.01 201.089 33.01C200.529 33.01 200.039 33.125 199.619 33.355C199.209 33.575 198.889 33.9 198.659 34.33C198.439 34.75 198.329 35.26 198.329 35.86V40H197.264V32.125H198.284V34.285L198.119 33.88C198.369 33.31 198.769 32.865 199.319 32.545C199.869 32.215 200.524 32.05 201.284 32.05ZM209.141 40.075C208.401 40.075 207.831 39.875 207.431 39.475C207.031 39.075 206.831 38.51 206.831 37.78V30.385H207.896V37.72C207.896 38.18 208.011 38.535 208.241 38.785C208.481 39.035 208.821 39.16 209.261 39.16C209.731 39.16 210.121 39.025 210.431 38.755L210.806 39.52C210.596 39.71 210.341 39.85 210.041 39.94C209.751 40.03 209.451 40.075 209.141 40.075ZM205.421 33.01V32.125H210.296V33.01H205.421ZM218.441 40.075C217.661 40.075 216.961 39.905 216.341 39.565C215.731 39.215 215.251 38.74 214.901 38.14C214.551 37.53 214.376 36.835 214.376 36.055C214.376 35.265 214.551 34.57 214.901 33.97C215.251 33.37 215.731 32.9 216.341 32.56C216.961 32.22 217.661 32.05 218.441 32.05C219.111 32.05 219.716 32.18 220.256 32.44C220.796 32.7 221.221 33.09 221.531 33.61L220.736 34.15C220.466 33.75 220.131 33.455 219.731 33.265C219.331 33.075 218.896 32.98 218.426 32.98C217.866 32.98 217.361 33.11 216.911 33.37C216.461 33.62 216.106 33.975 215.846 34.435C215.586 34.895 215.456 35.435 215.456 36.055C215.456 36.675 215.586 37.215 215.846 37.675C216.106 38.135 216.461 38.495 216.911 38.755C217.361 39.005 217.866 39.13 218.426 39.13C218.896 39.13 219.331 39.035 219.731 38.845C220.131 38.655 220.466 38.365 220.736 37.975L221.531 38.515C221.221 39.025 220.796 39.415 220.256 39.685C219.716 39.945 219.111 40.075 218.441 40.075ZM225.951 40.075C225.191 40.075 224.506 39.905 223.896 39.565C223.296 39.215 222.821 38.74 222.471 38.14C222.121 37.53 221.946 36.835 221.946 36.055C221.946 35.265 222.121 34.57 222.471 33.97C222.821 33.37 223.296 32.9 223.896 32.56C224.496 32.22 225.181 32.05 225.951 32.05C226.731 32.05 227.421 32.22 228.021 32.56C228.631 32.9 229.106 33.37 229.446 33.97C229.796 34.57 229.971 35.265 229.971 36.055C229.971 36.835 229.796 37.53 229.446 38.14C229.106 38.74 228.631 39.215 228.021 39.565C227.411 39.905 226.721 40.075 225.951 40.075ZM225.951 39.13C226.521 39.13 227.026 39.005 227.466 38.755C227.906 38.495 228.251 38.135 228.501 37.675C228.761 37.205 228.891 36.665 228.891 36.055C228.891 35.435 228.761 34.895 228.501 34.435C228.251 33.975 227.906 33.62 227.466 33.37C227.026 33.11 226.526 32.98 225.966 32.98C225.406 32.98 224.906 33.11 224.466 33.37C224.026 33.62 223.676 33.975 223.416 34.435C223.156 34.895 223.026 35.435 223.026 36.055C223.026 36.665 223.156 37.205 223.416 37.675C223.676 38.135 224.026 38.495 224.466 38.755C224.906 39.005 225.401 39.13 225.951 39.13ZM231.28 40.075C231.06 40.075 230.87 39.995 230.71 39.835C230.56 39.675 230.485 39.48 230.485 39.25C230.485 39.01 230.56 38.815 230.71 38.665C230.87 38.515 231.06 38.44 231.28 38.44C231.5 38.44 231.685 38.515 231.835 38.665C231.995 38.815 232.075 39.01 232.075 39.25C232.075 39.48 231.995 39.675 231.835 39.835C231.685 39.995 231.5 40.075 231.28 40.075ZM233.829 40V29.5H234.939V39.04H240.819V40H233.829ZM244.104 40.075C243.364 40.075 242.794 39.875 242.394 39.475C241.994 39.075 241.794 38.51 241.794 37.78V30.385H242.859V37.72C242.859 38.18 242.974 38.535 243.204 38.785C243.444 39.035 243.784 39.16 244.224 39.16C244.694 39.16 245.084 39.025 245.394 38.755L245.769 39.52C245.559 39.71 245.304 39.85 245.004 39.94C244.714 40.03 244.414 40.075 244.104 40.075ZM240.384 33.01V32.125H245.259V33.01H240.384ZM249.814 40.075C249.064 40.075 248.389 39.905 247.789 39.565C247.199 39.225 246.734 38.755 246.394 38.155C246.054 37.545 245.884 36.845 245.884 36.055C245.884 35.255 246.054 34.555 246.394 33.955C246.734 33.355 247.199 32.89 247.789 32.56C248.389 32.22 249.064 32.05 249.814 32.05C250.504 32.05 251.119 32.205 251.659 32.515C252.209 32.825 252.644 33.28 252.964 33.88C253.294 34.47 253.459 35.195 253.459 36.055C253.459 36.905 253.299 37.63 252.979 38.23C252.659 38.83 252.224 39.29 251.674 39.61C251.134 39.92 250.514 40.075 249.814 40.075ZM249.889 39.13C250.449 39.13 250.949 39.005 251.389 38.755C251.839 38.495 252.189 38.135 252.439 37.675C252.699 37.205 252.829 36.665 252.829 36.055C252.829 35.435 252.699 34.895 252.439 34.435C252.189 33.975 251.839 33.62 251.389 33.37C250.949 33.11 250.449 32.98 249.889 32.98C249.339 32.98 248.844 33.11 248.404 33.37C247.964 33.62 247.614 33.975 247.354 34.435C247.094 34.895 246.964 35.435 246.964 36.055C246.964 36.665 247.094 37.205 247.354 37.675C247.614 38.135 247.964 38.495 248.404 38.755C248.844 39.005 249.339 39.13 249.889 39.13ZM252.859 40V37.63L252.964 36.04L252.814 34.45V28.87H253.879V40H252.859ZM256.2 40.075C255.98 40.075 255.79 39.995 255.63 39.835C255.48 39.675 255.405 39.48 255.405 39.25C255.405 39.01 255.48 38.815 255.63 38.665C255.79 38.515 255.98 38.44 256.2 38.44C256.42 38.44 256.605 38.515 256.755 38.665C256.915 38.815 256.995 39.01 256.995 39.25C256.995 39.48 256.915 39.675 256.755 39.835C256.605 39.995 256.42 40.075 256.2 40.075Z" fill="#D0D0D0"/>
<path d="M40 45C62.0914 45 80 34.9264 80 22.5C80 10.0736 62.0914 0 40 0C17.9086 0 0 10.0736 0 22.5C0 34.9264 17.9086 45 40 45Z" fill="#D0D0D0"/>
<path d="M12.0749 12.0269H22.197V14.9942H21.5285C20.8848 14.9942 20.4878 15.0308 20.3389 15.1023C20.1016 15.215 19.9294 15.3739 19.8255 15.5788C19.7215 15.7837 19.6688 16.1682 19.6688 16.7337V22.4445L26.1336 16.2396C26.4205 15.9632 26.5942 15.7758 26.6532 15.6789C26.7121 15.582 26.7431 15.4978 26.7431 15.4247C26.7431 15.2818 26.6858 15.1737 26.5725 15.1023C26.4578 15.0308 26.1693 14.9942 25.7039 14.9942H24.8726V12.0269H34.2518V14.9942H33.94C33.5042 14.9942 33.2017 15.0181 33.0327 15.0641C32.8636 15.1102 32.6588 15.2103 32.4153 15.3644C32.1718 15.5185 31.8585 15.7694 31.4707 16.1173L26.4593 20.6049L32.437 28.959C32.952 29.6771 33.3289 30.1028 33.5662 30.2362C33.8826 30.4205 34.3386 30.5126 34.9342 30.5126H35.336V33.48H24.871V30.5126H25.2867C26.0498 30.5126 26.5136 30.4761 26.6765 30.4046C26.8393 30.3331 26.9215 30.241 26.9215 30.1282C26.9215 30.0043 26.768 29.712 26.4609 29.2513L22.8128 23.871L19.6688 26.6859V28.8447C19.6688 29.3752 19.7184 29.7422 19.8177 29.9471C19.917 30.152 20.0581 30.2966 20.2412 30.384C20.4242 30.4713 20.7933 30.5142 21.3486 30.5142H22.1955V33.4816H12.0733V30.5142H12.8364C13.4243 30.5142 13.8183 30.465 14.0168 30.3681C14.2169 30.2712 14.3611 30.1139 14.4511 29.8995C14.5302 29.7247 14.5705 29.3053 14.5705 28.6382V16.9211C14.5705 16.2857 14.5255 15.86 14.4356 15.6439C14.3456 15.4295 14.2014 15.2675 14.0013 15.1594C13.8027 15.0514 13.4429 14.9974 12.9249 14.9974H12.0718V12.03L12.0749 12.0269Z" fill="#313131"/>
<path d="M36.3348 12.0269H46.4569V14.9942H45.5356C45.0005 14.9942 44.6469 15.0435 44.4732 15.1404C44.2994 15.2373 44.1707 15.3914 44.0869 15.6011C44.0032 15.8107 43.9613 16.2142 43.9613 16.8083V28.6795C43.9613 29.3244 43.9954 29.7406 44.0652 29.9249C44.135 30.1091 44.2529 30.2426 44.422 30.3252C44.6298 30.4475 44.9416 30.5095 45.3588 30.5095H46.4585V33.4768H36.3364V30.5095H37.1584C37.7463 30.5095 38.1309 30.465 38.3093 30.3792C38.4892 30.2918 38.621 30.1536 38.7048 29.9646C38.7901 29.7755 38.832 29.3991 38.832 28.8335V16.9164C38.832 16.2508 38.7901 15.8123 38.7048 15.6011C38.6195 15.3914 38.4784 15.2293 38.2783 15.1166C38.1387 15.034 37.799 14.9942 37.2608 14.9942H36.3333V12.0269H36.3348Z" fill="#313131"/>
<path d="M64.609 12.0267H66.7184L68.7534 19.7311L65.9879 20.5619C65.0666 18.7272 64.1995 17.4246 63.3868 16.6557C62.2576 15.5994 61.0338 15.072 59.7154 15.072C58.7538 15.072 57.8542 15.3484 57.0182 15.9028C56.1806 16.4572 55.5167 17.2721 55.0266 18.3475C54.5365 19.4245 54.2914 20.6843 54.2914 22.1298C54.2914 24.3347 54.8529 26.2298 55.979 27.82C57.1035 29.4085 58.577 30.2028 60.401 30.2028C61.5596 30.2028 62.6748 29.8596 63.7451 29.1734C65.0821 28.3219 66.2376 27.1798 67.2085 25.7437L69.5119 27.5118C68.0166 29.6245 66.6502 31.0939 65.4124 31.9247C63.5015 33.2067 61.372 33.8469 59.0252 33.8469C57.074 33.8469 55.3089 33.3623 53.7299 32.3933C52.151 31.4243 50.89 30.0693 49.95 28.3267C49.0101 26.5841 48.5386 24.6826 48.5386 22.6223C48.5386 20.5619 48.9961 18.7034 49.9128 17.0179C50.8295 15.3309 52.0765 14.0172 53.6555 13.0736C55.2345 12.13 56.9949 11.6582 58.9353 11.6582C60.8756 11.6582 62.633 12.0887 64.1189 12.9497L64.609 12.0267Z" fill="#313131"/>
</svg>
