<svg width="80" height="45" viewBox="0 0 80 45" fill="none" xmlns="http://www.w3.org/2000/svg">
<path d="M40 45C62.0914 45 80 34.9264 80 22.5C80 10.0736 62.0914 0 40 0C17.9086 0 0 10.0736 0 22.5C0 34.9264 17.9086 45 40 45Z" fill="#282973"/>
<path d="M12.0754 12.0269H22.1975V14.9942H21.529C20.8853 14.9942 20.4883 15.0308 20.3394 15.1023C20.102 15.215 19.9299 15.3739 19.826 15.5788C19.722 15.7837 19.6693 16.1682 19.6693 16.7337V22.4445L26.1341 16.2396C26.421 15.9632 26.5947 15.7758 26.6537 15.6789C26.7126 15.582 26.7436 15.4978 26.7436 15.4247C26.7436 15.2818 26.6862 15.1737 26.573 15.1023C26.4582 15.0308 26.1697 14.9942 25.7044 14.9942H24.8731V12.0269H34.2523V14.9942H33.9405C33.5047 14.9942 33.2022 15.0181 33.0331 15.0641C32.8641 15.1102 32.6593 15.2103 32.4158 15.3644C32.1723 15.5185 31.859 15.7694 31.4712 16.1173L26.4598 20.6049L32.4375 28.959C32.9525 29.6771 33.3294 30.1028 33.5667 30.2362C33.8831 30.4205 34.3391 30.5126 34.9347 30.5126H35.3364V33.48H24.8715V30.5126H25.2872C26.0503 30.5126 26.5141 30.4761 26.6769 30.4046C26.8398 30.3331 26.922 30.241 26.922 30.1282C26.922 30.0043 26.7685 29.712 26.4613 29.2513L22.8133 23.871L19.6693 26.6859V28.8447C19.6693 29.3752 19.7189 29.7422 19.8182 29.9471C19.9175 30.152 20.0586 30.2966 20.2416 30.384C20.4247 30.4713 20.7938 30.5142 21.3491 30.5142H22.196V33.4816H12.0738V30.5142H12.8369C13.4248 30.5142 13.8187 30.465 14.0173 30.3681C14.2174 30.2712 14.3616 30.1139 14.4516 29.8995C14.5307 29.7247 14.571 29.3053 14.571 28.6382V16.9211C14.571 16.2857 14.526 15.86 14.4361 15.6439C14.3461 15.4295 14.2019 15.2675 14.0018 15.1594C13.8032 15.0514 13.4434 14.9974 12.9253 14.9974H12.0723V12.03L12.0754 12.0269Z" fill="white"/>
<path d="M36.3346 12.0269H46.4567V14.9942H45.5354C45.0003 14.9942 44.6466 15.0435 44.4729 15.1404C44.2992 15.2373 44.1705 15.3914 44.0867 15.6011C44.0029 15.8107 43.9611 16.2142 43.9611 16.8083V28.6795C43.9611 29.3244 43.9952 29.7406 44.065 29.9249C44.1348 30.1091 44.2527 30.2426 44.4217 30.3252C44.6296 30.4475 44.9413 30.5095 45.3586 30.5095H46.4583V33.4768H36.3361V30.5095H37.1582C37.746 30.5095 38.1307 30.465 38.309 30.3792C38.489 30.2918 38.6208 30.1536 38.7046 29.9646C38.7899 29.7756 38.8317 29.3991 38.8317 28.8335V16.9164C38.8317 16.2508 38.7899 15.8123 38.7046 15.6011C38.6193 15.3914 38.4781 15.2293 38.278 15.1166C38.1384 15.034 37.7987 14.9942 37.2605 14.9942H36.333V12.0269H36.3346Z" fill="white"/>
<path d="M64.6085 12.0267H66.7179L68.7529 19.7311L65.9874 20.5619C65.0661 18.7272 64.199 17.4246 63.3863 16.6557C62.2571 15.5994 61.0333 15.072 59.7149 15.072C58.7533 15.072 57.8537 15.3484 57.0177 15.9028C56.1801 16.4572 55.5163 17.2721 55.0261 18.3475C54.536 19.4245 54.2909 20.6843 54.2909 22.1298C54.2909 24.3347 54.8524 26.2298 55.9785 27.82C57.103 29.4085 58.5765 30.2028 60.4005 30.2028C61.5591 30.2028 62.6743 29.8596 63.7446 29.1734C65.0816 28.3219 66.2371 27.1798 67.2081 25.7437L69.5114 27.5118C68.0162 29.6245 66.6497 31.0939 65.4119 31.9247C63.5011 33.2067 61.3715 33.8469 59.0247 33.8469C57.0735 33.8469 55.3084 33.3623 53.7294 32.3933C52.1505 31.4243 50.8895 30.0693 49.9495 28.3267C49.0096 26.5841 48.5381 24.6826 48.5381 22.6223C48.5381 20.5619 48.9956 18.7034 49.9123 17.0179C50.829 15.3309 52.076 14.0172 53.655 13.0736C55.234 12.13 56.9944 11.6582 58.9348 11.6582C60.8751 11.6582 62.6325 12.0887 64.1184 12.9497L64.6085 12.0267Z" fill="white"/>
</svg>
