<?xml version="1.0" encoding="UTF-8"?>
<svg id="_레이어_2" data-name="레이어 2" xmlns="http://www.w3.org/2000/svg" viewBox="0 0 5358.48 1581.64">
  <defs>
    <style>
      .cls-1 {
        fill: none;
      }

      .cls-2 {
        fill: #fff;
      }

      .cls-3 {
        fill: #fff;
      }
    </style>
  </defs>
  <g id="Layer_1" data-name="Layer 1">
    <g>
      <g>
        <polyline class="cls-3" points="1903.12 649.82 1902.51 649.41 1903.12 649.82"/>
        <path class="cls-3" d="m1688.68,626.46c14.56-10.25,37.95-17.54,64.59-17.49h.65c50.9-.1,95.32,26.83,138.83,56.26l.59.4,13.03,8.72,6.01,4.02,17.51-15.84,73.08-66.29-30.96-21.67c-57.63-40.43-132.14-73.68-215.53-73.78-58.57.04-112.56,13.11-154.18,40.29-41.64,26.84-70.29,70.87-70.25,124.12v1.5c-.02,43.62,21.45,78.97,50.06,104.12l-.04-.02c28.68,25.43,64.49,43.54,100.99,59.97l64.9,29.52.03.02c31.37,14.09,54.84,25.7,71.85,35.23,16.99,9.48,27.55,17.05,32.67,22.26l.03.03c5.69,5.91,6.02,7.2,7.38,11.28.93,3.04,1.54,9.46,1.49,19.26v1.14c-.16,18.13-8.83,33.74-27.91,47.83h.03c-18.69,13.57-47.17,22.91-78.93,22.86h-.14c-59.02,0-106.7-28.38-136.89-64.89l-16.54-20.05-113.99,68.41,28.54,27.8-.46-.45c60.01,58.96,138.13,97.35,238.37,97.26h.91s.08.01.08.01c67.56-.07,126.77-15.44,170.97-47.03,44.22-31.31,71.51-80.66,71.45-138.33v-1.21c0-18.65-2.74-36.82-10.17-53.98-11.26-26.09-31.83-46.75-60.03-65.76l.86.58-.82-.57c-28.32-19.2-65.45-38.04-115.51-61.32l-56.63-26.33-.48-.24c-46.83-21.42-69.95-38.26-78.51-48.23l.37.44-.4-.47c-4.54-5.24-5.71-7.95-6.73-11.08-.89-2.86-1.31-6.5-1.29-12.57.07-7.2,1.72-13.26,5.05-19.05,3.33-5.75,8.52-11.27,16.04-16.66Zm213.83,22.95l.61.41-.61-.41Zm-213.8-22.97v-.02l.2-.13-.2.15Z"/>
        <path class="cls-3" d="m1602.28,541.09l.03-.02-.03.02Z"/>
        <path class="cls-3" d="m1925.5,1081.22l-.04.02.04-.02Z"/>
        <polyline class="cls-3" points="2449.84 697.15 2449.82 697.16 2449.84 697.15"/>
        <polyline class="cls-3" points="2375.54 997.81 2376.01 997.33 2375.54 997.81"/>
        <path class="cls-3" d="m2449.82,697.16l-.02-.02h.04c-48.9-38.82-108.95-53.68-161.59-53.81h-.65c-33.12-.02-59.1,4.26-82.43,13.45-11.38,4.47-21.77,10.13-31.97,16.2l-11.36-33.28-136.74,13.12,17.17,38.36c19.32,43.07,23.44,89.6,23.44,139.56v442.39h135.49v-158.64c25.56,7.24,52.02,11.56,82.78,11.54h1.15c49.15-.13,109.1-15.01,159.48-52.55,50.34-37.25,89-99.72,88.91-185.13v-2.06c.11-86.8-34.74-150.54-83.7-189.14Zm-73.81,300.17l-.47.49.47-.49Zm-143.92-229.95c13.94-9.59,29.84-15.69,55.09-15.86h.29c18.35-.08,47.44,6.57,69.23,25.07l-.41-.35.39.32c22.13,19.03,40.93,48.9,41.39,108.57-.16,46.44-14.25,78.14-35.63,99.54-21.46,21.22-51.74,33.1-89.37,33.2h-.22c-23.56.04-48.26-8.5-71.64-20.85v-196c9.15-13.73,19.16-25.44,30.88-33.63Z"/>
        <polygon class="cls-3" points="2444.63 1073.47 2444.61 1073.49 2444.06 1073.89 2444.63 1073.47"/>
        <path class="cls-3" d="m2965.95,980.58v-175.97c0-43.08-19.99-84.22-54.28-113.69-34.3-29.54-82.66-47.6-139.86-47.58h-.22c-60.83,0-111.5,14.04-162.81,29.31l-30.06,8.97,10.08,29.72,26.53,77.99,27.2-8.61,1-.3c43.91-14.07,85.04-28.98,124.52-28.9h.5c22.39,0,38.1,6.33,47.55,14.34,9.35,8.28,13.77,17.19,14.25,31.14-25.3-5.98-52.57-10.31-81.42-10.35h0s-.25-.02-.25-.02h-.29c-60.31-.02-110.96,19.34-146.37,51.83-35.44,32.37-54.87,77.32-54.85,124.5v.57c-.02,43.89,17.94,85.76,51.34,115.51,33.37,29.87,80.89,47.02,137.69,47h1.84c45.06.04,84-10.91,117.44-31.29l13.03,34.91,135.38-13.21-17.73-38.56c-13.89-30.3-20.23-63.91-20.23-97.31Zm-174.05,19.79l-.03.02c-16.47,10.87-32.77,17.31-55.33,17.47-21.62-.4-32.37-6.94-41.16-16.47-8.18-9.19-12.78-23-12.73-35v-.09c0-20.14,5.91-38.01,16.75-50,11.25-12.07,27.43-21.14,59.21-21.48h.32c23.83-.01,47.67,4.9,71.52,11.83v59.52c-12.63,13.09-25.26,25.29-38.56,34.2Zm-96.28,1.28l-.22-.23v-.03l.22.25Z"/>
        <polygon class="cls-3" points="2598.51 1079.05 2598.51 1079.03 2597.76 1078.36 2598.51 1079.05"/>
        <path class="cls-3" d="m3441.81,941.83l-18.91,17.19.02-.02c-17.17,15.6-35.76,30.41-55.75,41.22-20.03,10.83-41.37,17.63-64.62,17.64h-.7c-29.15.03-61-8.31-83.82-27.67l.48.4-.45-.37c-22.95-19.73-40.49-49.86-40.93-106.72.32-53.67,16.29-83.85,37.92-103.41,21.63-19.38,52.38-28.57,85-28.57,27.97.14,47.64,6.82,64.52,17.48h-.02c16.67,10.62,30.46,25.9,42.41,44.04l.61.92,9.67,14.58,4.54,6.86,123.86-62.12-25.24-28.89-.38-.44c-50.7-58.72-122.62-100.7-218.85-100.6h-1.22c-58.29.1-121.71,14.2-172.55,53.09l-.66.51.69-.52c-50.98,38.67-85.9,103.23-85.8,191.28v2.59c-.13,88.11,38.72,151.11,91.43,187.16l-.02-.03c52.6,36.42,115.97,48.53,170.01,48.63h1.31c90.24.11,153.33-35.27,208.99-81.08l-.39.32,29.63-24.11-29.65-23.33-71.12-56Zm-142.38-208.89h.62-.62Zm-84.38,47.15h0s.7-.63.7-.63l-.7.63Z"/>
        <polygon class="cls-3" points="3992.97 737.56 3992.99 737.57 3993.01 737.58 3992.97 737.56"/>
        <polygon class="cls-3" points="3601.79 1051.47 3601.79 1051.47 3601.77 1051.45 3601.79 1051.47"/>
        <path class="cls-3" d="m3978.56,966.32l-24.04,11.16c-46.8,21.74-102.2,40.43-154.08,40.38h-.39c-36.76,0-66.17-8.41-85.79-25.29-15.11-13.04-26.96-31.99-32.72-62.91h352.94v-61.24c-.22-27.49-7.73-80.47-41.48-130.85-33.36-50.38-96.39-94.36-193.43-94.24h-2.45c-86.32-.07-152.08,30.13-194.17,77.1-42.29,46.9-60.33,107.88-60.33,166.93v.09c0,58.5,17.54,118.26,59.19,164.01,41.53,45.78,106.35,74.62,191.47,74.56h.77c78.96.02,146.88-18.69,214.92-41.78l8.79-2.98,16.33-5.56,11.17-3.8-66.69-105.61Zm-262.26-188.68c17.61-16.54,39.11-25.76,75.71-26.13,34.42.23,59.06,12.37,77.25,30.98,10.56,10.92,18.46,24.4,23.48,38.99h-204.4c7.77-18.72,17.08-33.46,27.95-43.84Z"/>
        <polygon class="cls-3" points="3602.29 721.14 3602.94 720.43 3602.92 720.45 3602.29 721.14"/>
      </g>
      <circle class="cls-2" cx="601.27" cy="100.46" r="30.98"/>
      <g>
        <path class="cls-1" d="m656.62,82.69c-9.39-30.71-41.89-47.99-72.59-38.61-30.7,9.38-47.98,41.87-38.6,72.59,9.37,30.7,41.87,47.99,72.58,38.61,30.7-9.38,47.99-41.89,38.61-72.59Z"/>
        <path class="cls-1" d="m540.08,338.49c-60.6,18.52-94.72,82.66-76.2,143.26,18.51,60.59,82.65,94.71,143.25,76.2,60.6-18.52,94.72-82.66,76.2-143.26-18.52-60.61-82.66-94.72-143.25-76.21Zm51.28,167.82c-32.09,9.8-66.04-8.26-75.85-40.34-9.8-32.09,8.26-66.05,40.34-75.85,32.09-9.8,66.04,8.26,75.85,40.34,9.8,32.09-8.26,66.04-40.34,75.85Z"/>
        <path class="cls-1" d="m784.41,263.83c-60.6,18.52-94.71,82.66-76.2,143.26,18.52,60.6,82.66,94.72,143.26,76.2,60.6-18.52,94.72-82.66,76.2-143.26-18.51-60.61-82.66-94.72-143.26-76.2Zm51.28,167.82c-32.08,9.8-66.04-8.26-75.85-40.34-9.8-32.08,8.26-66.04,40.34-75.84,32.08-9.81,66.04,8.26,75.85,40.35,9.8,32.08-8.26,66.04-40.34,75.84Z"/>
        <path class="cls-3" d="m1383.45,373.13c-6.41-20.99-86.4-71.19-205.01-109.72,76.82-98.25,115.09-184.58,108.68-205.58-8.61-28.18-95.73,67.8-242.57,171.78-115.68-21.15-249.32-24.99-381.62,10.98l-16.24-48.64c43.53-21.66,66.33-72.19,51.65-120.23-16.34-53.5-72.97-83.62-126.46-67.27-53.5,16.35-83.62,72.97-67.27,126.47,14.68,48.03,61.83,77.2,110.03,70.82l16.17,48.39c-134.54,43.41-246.83,123.3-333.22,207.73C117.69,453.71-8.19,422.82.42,450.99c6.42,21,86.4,71.2,205.02,109.72-76.82,98.25-115.09,184.59-108.68,205.57,8.61,28.18,95.72-67.8,242.57-171.78,30.52,5.58,62.28,9.94,94.94,12.7-32.72,75.38-35.41,142.72-7.91,200.51,49.27,103.54,177.23,130.46,182.66,131.56l17.86-87.57c-.6-.13-40.8-8.87-76.24-33.54-17.53-12.2-33.9-28.31-43.74-49.2-18.2-38.6-11.11-89.25,21.03-150.52l2.4-4.57.92-3.58c57.88-1.29,117.36-8.39,176.7-23.36-1.13-2.18-2.11-4.49-2.86-6.94-6.52-21.34,5.11-43.79,25.98-50.17,20.86-6.38,43.06,5.74,49.58,27.08.72,2.33,1.18,4.7,1.47,7.04,60.83-22.49,116.8-52.33,167.59-86.31,56,33.21,87.16,70.67,92.53,111.38,1.75,13.29.78,26.41-1.94,38.94-11.43,52.72-53.74,95.02-54.27,95.53l62.37,64.02c3.97-3.86,97.07-95.69,82.54-209.42-7.7-60.3-42.97-113.11-104.98-157.44,21.32-17.69,41.45-35.93,60.34-54.38,179.88,4.15,305.76,35.04,297.15,6.86Zm-765.44-217.85c-30.71,9.38-63.21-7.91-72.58-38.61-9.38-30.71,7.9-63.21,38.6-72.59,30.71-9.38,63.2,7.9,72.59,38.61,9.38,30.7-7.91,63.2-38.61,72.59Zm-10.87,402.68c-60.6,18.51-124.74-15.61-143.25-76.2-18.52-60.6,15.6-124.74,76.2-143.26,60.59-18.52,124.73,15.6,143.25,76.21,18.52,60.6-15.6,124.74-76.2,143.26Zm244.34-74.66c-60.6,18.52-124.74-15.6-143.26-76.2-18.51-60.6,15.6-124.74,76.2-143.26,60.6-18.52,124.74,15.6,143.26,76.2,18.52,60.6-15.6,124.74-76.2,143.26Z"/>
        <path class="cls-3" d="m800.19,315.47c-32.09,9.8-50.14,43.76-40.34,75.84,9.8,32.08,43.76,50.14,75.85,40.34,32.08-9.8,50.14-43.76,40.34-75.84-9.81-32.08-43.76-50.15-75.85-40.35Z"/>
        <path class="cls-3" d="m555.85,390.12c-32.08,9.8-50.14,43.76-40.34,75.85,9.8,32.08,43.76,50.14,75.85,40.34,32.08-9.81,50.14-43.76,40.34-75.85-9.8-32.08-43.76-50.15-75.85-40.34Z"/>
      </g>
      <polygon class="cls-2" points="1399.04 1391.71 1245.8 1463.39 1260.3 1308.31 1413.56 1233.18 1399.04 1391.71"/>
      <polygon class="cls-3" points="1256.86 1497.16 1401.76 1429.75 1529.36 1519.33 1385.55 1581.64 1256.86 1497.16"/>
      <polygon class="cls-3" points="932.23 1449.39 1061.55 1356.37 1203.2 1420.3 1073.99 1508.12 932.23 1449.39"/>
      <g>
        <polygon class="cls-2" points="1060.8 1356.63 1043.78 1201.01 932.19 1284.75 965.1 1347.89 920.87 1345.97 932.04 1449.64 1060.8 1356.63"/>
        <polygon class="cls-3" points="760.84 1454.44 833.9 1341.32 965.1 1347.89 890.53 1456.9 760.84 1454.44"/>
      </g>
      <g>
        <polygon class="cls-2" points="596.43 1326.46 539.18 1447.9 464.69 1341.83 520.21 1218.26 596.43 1326.46"/>
        <g>
          <polygon class="cls-2" points="833.39 1341.75 771.94 1224.55 721.48 1306.29 727.82 1315.34 708.21 1354.03 760.78 1454.69 833.39 1341.75"/>
          <polygon class="cls-3" points="715.2 1316.45 596.43 1326.9 539.22 1447.64 668.12 1433.14 708.21 1354.03 727.82 1315.34 715.2 1316.45"/>
          <polygon class="cls-3" points="715.26 1316.36 596.88 1325.94 596.43 1326.9 715.2 1316.45 715.26 1316.36"/>
          <polygon class="cls-3" points="715.2 1316.45 727.82 1315.34 715.26 1316.36 715.2 1316.45"/>
        </g>
      </g>
      <g>
        <polygon class="cls-2" points="684.79 1149.29 627.55 1270.75 553.07 1164.67 608.57 1041.11 684.79 1149.29"/>
        <polygon class="cls-3" points="627.58 1270.47 685.24 1148.78 816.18 1138.18 756.47 1255.98 627.58 1270.47"/>
      </g>
      <polygon class="cls-2" points="845.55 790.39 788.31 911.84 713.82 805.77 769.33 682.2 845.55 790.39"/>
      <polygon class="cls-2" points="763.16 970.62 705.92 1092.07 631.43 985.99 686.95 862.44 763.16 970.62"/>
      <polygon class="cls-3" points="763.62 970.11 749.99 998.86 705.95 1091.8 768.17 1084.81 812.02 1079.88 834.84 1077.31 867.92 1012.05 894.56 959.5 763.62 970.11"/>
      <g>
        <polygon class="cls-1" points="1032.53 1191.47 1071.56 1109.11 1071.33 1109.13 1032.53 1191.47"/>
        <polygon class="cls-3" points="995.6 1000.88 1057.99 995.4 1086.55 939.04 958.51 950.29 901.65 1070.92 966.98 1063.58 995.33 1000.49 995.6 1000.88"/>
        <polygon class="cls-3" points="897.94 1071.34 901.25 1070.97 899.38 1068.31 897.94 1071.34"/>
        <polygon class="cls-2" points="1071.33 1109.13 1068.01 1109.43 1029.43 1051.76 995.4 1000.9 995.6 1000.88 995.33 1000.49 966.98 1063.58 939.82 1124.05 1014.31 1230.14 1014.45 1229.85 1014.34 1229.86 1032.53 1191.47 1071.33 1109.13"/>
        <polygon class="cls-2" points="1030.27 1050.09 1029.43 1051.76 1068.01 1109.43 1071.33 1109.13 1071.55 1108.68 1030.27 1050.09"/>
        <polygon class="cls-2" points="995.6 1000.88 995.4 1000.9 1029.43 1051.76 1030.27 1050.09 995.6 1000.88"/>
        <polygon class="cls-3" points="1202.94 1097.57 1071.56 1109.11 1032.53 1191.47 1014.45 1229.85 1143.24 1215.38 1202.94 1097.57"/>
        <polygon class="cls-3" points="1071.56 1109.11 1202.94 1097.57 1072 1108.18 1071.56 1109.11"/>
        <polygon class="cls-3" points="1014.34 1229.86 1014.45 1229.85 1032.53 1191.47 1014.34 1229.86"/>
        <polygon class="cls-3" points="879 842.37 882.3 842.08 882.5 841.65 882.77 842.04 948.04 836.3 976.94 779.27 846.01 789.89 788.34 911.58 854.42 904.14 880.9 845.21 879 842.37"/>
        <polygon class="cls-2" points="901.48 1071.29 901.65 1070.92 901.25 1070.97 901.48 1071.29"/>
        <polygon class="cls-2" points="882.5 841.65 882.3 842.08 882.77 842.04 882.5 841.65"/>
        <polygon class="cls-2" points="955.16 950.58 951.62 950.89 930.66 919.57 915.72 897.25 880.9 845.21 854.42 904.14 839.13 938.17 826.99 965.22 899.38 1068.31 901.25 1070.97 901.65 1070.92 958.51 950.29 955.16 950.58"/>
        <polygon class="cls-3" points="916.87 1098.52 885.36 1104.45 870.18 1076.21 859.56 1106.46 827.51 1105.49 848.41 1129.81 831.54 1157.08 863.05 1151.14 878.23 1179.39 888.85 1149.13 920.89 1150.11 900 1125.78 916.87 1098.52"/>
      </g>
      <path class="cls-2" d="m4949.73,905.9c98.8-125.17,159.51-252.01,180.25-380.18l4.83-29.75h-207.39v25.63c-.09,88.37-20.12,169.11-60.38,243.7-53.39-99.88-98.95-169.9-139.28-211.78-45.73-47.61-102.44-73.26-164.64-73.03-96.07-.35-180.64,44.83-247.11,129.07-67.04,83.98-100.59,186.06-100.48,302.13-.07,97.57,23.69,179.18,73.47,241.17,49.39,62.32,119.35,94.77,201.26,94.36,56.82,0,114.98-20.56,174.06-58.9,52.15-33.91,105.43-81.91,160.48-143.73,1.47,2.29,2.72,4.26,3.69,5.85l.35.61,48.68,73.03,47.79,67.3c3.47,4.97,10.23,14.96,19.87,29.16l7.62,11.21h234.59l-36.62-42.44c-55.07-63.72-122.32-158.42-201.05-283.42Zm-331.53,151.08c-40.51,32.13-73.99,45.5-97.6,45.24-15.42-.08-27.5-3.81-38.97-11.56-11.4-7.75-22.36-20.24-32.24-38.99-19.81-37.23-31.06-92.25-30.97-164.67.02-70.99,14.28-132.04,42.13-184.65,13.9-26.19,28.49-44.69,42.17-55.82,13.89-11.13,26.05-15.37,39.5-15.47,6.6,0,14.71,2.25,25.26,9.14,10.45,6.88,22.75,18.42,35.87,34.86,26.58,32.96,65.34,96.83,114.02,189.27l30.38,57.72c-48.19,59.99-91.75,105.2-129.53,134.92Z"/>
      <g>
        <path class="cls-2" d="m5231.16,588.29h-18.55v-74.77h-27.36v-16.15h73.26v16.15h-27.36v74.77Z"/>
        <path class="cls-2" d="m5358.48,588.21h-17.31v-70.6l-16.55,70.6h-17.84l-16.2-70.6h-.34v70.6h-17.31v-90.88h27.12l16.12,68.74h.11l15.54-68.74h26.66v90.88Z"/>
      </g>
    </g>
  </g>
</svg>