<svg width="36" height="26" viewBox="0 0 36 26" fill="none" xmlns="http://www.w3.org/2000/svg">
<path d="M26.6836 12.934V2.498C26.6836 1.73 26.0762 1.10935 25.3326 1.11158L9.85025 1.15623C9.10662 1.15846 8.50566 1.78135 8.50782 2.54935L8.56835 23.9797C8.56835 24.7477 9.17579 25.3683 9.91943 25.3661L25.4017 25.3214" stroke="#1F2085" stroke-linecap="round" stroke-linejoin="round"/>
<path d="M11.7012 4.83325H20.8172" stroke="#1F2085" stroke-linecap="round" stroke-linejoin="round"/>
<path d="M11.7012 7.65747H20.8172" stroke="#1F2085" stroke-linecap="round" stroke-linejoin="round"/>
<path d="M11.7012 10.4817H16.9109" stroke="#1F2085" stroke-linecap="round" stroke-linejoin="round"/>
<path d="M27 25.48C30.3137 25.48 33 22.74 33 19.36C33 15.98 30.3137 13.24 27 13.24C23.6863 13.24 21 15.98 21 19.36C21 22.74 23.6863 25.48 27 25.48Z" stroke="#1F2085" stroke-linecap="round" stroke-linejoin="round"/>
<path d="M23.9941 16.8292L25.7436 22.4552L27.1049 16.6262" stroke="#1F2085" stroke-linecap="round" stroke-linejoin="round"/>
<path d="M30.2167 16.8292L28.4672 22.4552L27.1035 16.6262" stroke="#1F2085" stroke-linecap="round" stroke-linejoin="round"/>
<path d="M23.7969 19.6409H30.414" stroke="#1F2085" stroke-linecap="round" stroke-linejoin="round"/>
</svg>
