<svg width="36" height="26" viewBox="0 0 36 26" fill="none" xmlns="http://www.w3.org/2000/svg">
<path d="M17.9986 22.3136C20.3817 22.3136 22.3136 20.3429 22.3136 17.9118C22.3136 15.4808 20.3817 13.51 17.9986 13.51C15.6155 13.51 13.6836 15.4808 13.6836 17.9118C13.6836 20.3429 15.6155 22.3136 17.9986 22.3136Z" stroke="#1F2085" stroke-linecap="round" stroke-linejoin="round"/>
<path d="M17.9981 20.3284C19.3065 20.3284 20.3672 19.2465 20.3672 17.9119C20.3672 16.5773 19.3065 15.4954 17.9981 15.4954C16.6896 15.4954 15.6289 16.5773 15.6289 17.9119C15.6289 19.2465 16.6896 20.3284 17.9981 20.3284Z" stroke="#1F2085" stroke-linecap="round" stroke-linejoin="round"/>
<path d="M31.5842 7.44926C31.5538 7.23947 31.5043 7.01413 31.4319 6.76549C30.7273 4.35672 29.8019 3.50977 27.9091 2.44526C25.6088 1.15929 18.4983 1.00777 18.0147 1C18.0147 1 18.007 1 17.9994 1C17.9918 1 17.9842 1 17.9842 1C17.5005 1.00777 10.3901 1.15929 8.08979 2.44914C6.19698 3.50977 5.27152 4.36061 4.56695 6.76937C4.49459 7.01413 4.44508 7.24335 4.41461 7.45315C4.24323 8.62256 5.00873 9.71427 6.12081 9.90853C6.93963 10.0484 8.27259 10.2038 9.55986 10.029C10.9157 9.84248 11.1213 8.85178 11.1023 8.1952C11.0947 7.88828 10.988 7.5969 10.8357 7.32882C10.4891 6.71498 10.7329 6.34589 10.7329 6.34589C11.2508 4.61703 17.7138 4.57818 17.9994 4.57429C18.2851 4.57429 24.748 4.61314 25.266 6.34589C25.266 6.34589 25.5097 6.71498 25.1632 7.32882C25.0146 7.59301 24.908 7.88439 24.8966 8.1952C24.8775 8.85178 25.0832 9.84248 26.439 10.029C27.7263 10.2077 29.0592 10.0523 29.8781 9.90853C30.9939 9.71427 31.7556 8.62256 31.5842 7.45315V7.44926Z" stroke="#1F2085" stroke-linecap="round" stroke-linejoin="round"/>
<path d="M29.1949 23.044L27.4811 12.562C27.3631 11.6334 26.4909 10.9341 25.455 10.9341H22.3321V9.95508H19.8223V10.9341H16.1776V9.95508H13.6678V10.9341H10.5448C9.50893 10.9341 8.63679 11.6334 8.51873 12.562L6.80492 23.044C6.664 24.1357 7.61231 25.0953 8.83103 25.0953H27.1688C28.3875 25.0953 29.3358 24.1357 29.1949 23.044Z" stroke="#1F2085" stroke-linecap="round" stroke-linejoin="round"/>
</svg>
