<svg width="36" height="26" viewBox="0 0 36 26" fill="none" xmlns="http://www.w3.org/2000/svg">
<path d="M11.6953 4.75415H21.132" stroke="#1F2085" stroke-linecap="round" stroke-linejoin="round"/>
<path d="M11.6953 7.56934H21.132" stroke="#1F2085" stroke-linecap="round" stroke-linejoin="round"/>
<path d="M11.6953 10.3865H17.0883" stroke="#1F2085" stroke-linecap="round" stroke-linejoin="round"/>
<path d="M14.6618 16.0164L8.46094 22.5855" stroke="#1F2085" stroke-linecap="round" stroke-linejoin="round"/>
<path d="M21.1309 16.0164L27.3339 22.5855" stroke="#1F2085" stroke-linecap="round" stroke-linejoin="round"/>
<path d="M6 12.2622V23.3287C6 24.2522 6.75189 24.9999 7.68056 24.9999H28.2545C29.219 24.9999 30 24.2233 30 23.2642V12.2622" stroke="#1F2085" stroke-linecap="round" stroke-linejoin="round"/>
<path d="M6 12.2622C6.54825 12.487 7.16811 12.8497 8.22434 13.2792" stroke="#1F2085" stroke-linecap="round" stroke-linejoin="round"/>
<path d="M27.7793 13.2836C28.8378 12.8497 29.4576 12.4847 30.0036 12.2622" stroke="#1F2085" stroke-linecap="round" stroke-linejoin="round"/>
<path d="M27.7756 13.2837C24.0184 14.8214 18.1398 17.2226 18.0347 17.2226C17.9295 17.2226 12.0061 14.8192 8.22656 13.2793" stroke="#1F2085" stroke-linecap="round" stroke-linejoin="round"/>
<path d="M27.7793 13.2838V11.1453" stroke="#1F2085" stroke-linecap="round" stroke-linejoin="round"/>
<path d="M8.2207 10.9516V2.05925C8.2207 1.47399 8.69735 1 9.28588 1H26.7069C27.2954 1 27.772 1.47399 27.772 2.05925V11.1452" stroke="#1F2085" stroke-linecap="round" stroke-linejoin="round"/>
<path d="M8.2207 10.9514V13.2813" stroke="#1F2085" stroke-linecap="round" stroke-linejoin="round"/>
<path d="M30.0036 12.2624L27.7793 11.1453" stroke="#1F2085" stroke-linecap="round" stroke-linejoin="round"/>
<path d="M8.22434 10.9514L6 12.2621" stroke="#1F2085" stroke-linecap="round" stroke-linejoin="round"/>
</svg>
