<svg width="36" height="25" viewBox="0 0 36 25" fill="none" xmlns="http://www.w3.org/2000/svg">
<path d="M29.7584 14.2417V9.82016H28.1018C27.8893 9.01975 27.5749 8.26214 27.1759 7.55589L28.4509 6.28893L24.6954 2.55653L23.4248 3.81921C22.7483 3.44041 22.0219 3.13865 21.2587 2.92677V0.979248H15.4173V2.92677C14.654 3.13865 13.9276 3.44041 13.2511 3.81921L11.9805 2.55653L8.22719 6.28893L9.50215 7.55589C9.10318 8.26214 8.79095 9.01975 8.57629 9.82016H6.92188V15.0977H8.65435C8.89286 15.9024 9.23328 16.6643 9.66044 17.3684L8.51124 18.5113L12.2667 22.2437L13.5352 20.9831C14.2507 21.3534 15.0161 21.6401 15.8206 21.8285V23.5427H20.8662V21.8285C21.3064 21.7257 21.7335 21.5931 22.1477 21.4325" stroke="#1F2085" stroke-linecap="round" stroke-linejoin="round"/>
<path d="M24.4733 14.4043C24.7313 13.6766 24.8614 12.8912 24.8376 12.0715C24.74 8.71577 22.0144 5.95713 18.6406 5.80304C14.8113 5.62969 11.6695 8.74787 11.8364 12.5509C11.9817 15.8724 14.7029 18.5732 18.0443 18.7209C18.8531 18.7573 19.6293 18.6439 20.3513 18.4084" stroke="#1F2085" stroke-linecap="round" stroke-linejoin="round"/>
<path d="M29.8349 14.2415C31.177 14.5518 32.1202 15.7567 32.1202 17.197C32.1202 18.1065 31.8969 19.4099 30.8908 20.6362C29.1497 22.7592 26.8166 24.3087 26.1769 24.4799C25.6197 24.3301 23.7853 23.1401 22.1699 21.4345" stroke="#1F2085" stroke-linecap="round" stroke-linejoin="round"/>
<path d="M24.5156 14.4044C25.3396 14.7297 25.964 15.3739 26.1874 16.2664C26.5495 14.9673 27.7377 14.1626 29.1471 14.1626C29.3856 14.1626 29.6155 14.1904 29.8345 14.2418" stroke="#1F2085" stroke-linecap="round" stroke-linejoin="round"/>
<path d="M20.3672 18.4084C20.5255 19.1083 20.8464 19.8851 21.4622 20.6363C21.6898 20.9124 21.9262 21.1799 22.1669 21.4346" stroke="#1F2085" stroke-linecap="round" stroke-linejoin="round"/>
<path d="M24.517 14.4044C24.118 14.2461 23.6735 14.1626 23.203 14.1626C21.5052 14.1626 20.2324 15.5216 20.2324 17.1973C20.2324 17.5504 20.2671 17.9635 20.3669 18.4086" stroke="#1F2085" stroke-linecap="round" stroke-linejoin="round"/>
</svg>
